<mxfile host="app.diagrams.net" agent="Mozilla/5.0 (Windows NT 10.0; Win64; x64) AppleWebKit/537.36 (KHTML, like Gecko) Chrome/123.0.0.0 Safari/537.36 OPR/109.0.0.0" version="24.7.8" pages="3">
  <diagram name="PÃ¡gina-1" id="vjA5I-WJ8rmsAjjQ9aP3">
    <mxGraphModel dx="1615" dy="803" grid="1" gridSize="10" guides="1" tooltips="1" connect="1" arrows="1" fold="1" page="1" pageScale="1" pageWidth="827" pageHeight="1169" math="0" shadow="0">
      <root>
        <mxCell id="0" />
        <mxCell id="1" parent="0" />
        <mxCell id="dV8ylVzGYITSWxzMfHJX-21" value="" style="edgeStyle=orthogonalEdgeStyle;rounded=0;orthogonalLoop=1;jettySize=auto;html=1;curved=1;" parent="1" source="dV8ylVzGYITSWxzMfHJX-1" target="dV8ylVzGYITSWxzMfHJX-2" edge="1">
          <mxGeometry relative="1" as="geometry" />
        </mxCell>
        <mxCell id="dV8ylVzGYITSWxzMfHJX-26" style="edgeStyle=orthogonalEdgeStyle;rounded=0;orthogonalLoop=1;jettySize=auto;html=1;curved=1;" parent="1" source="dV8ylVzGYITSWxzMfHJX-1" target="dV8ylVzGYITSWxzMfHJX-14" edge="1">
          <mxGeometry relative="1" as="geometry">
            <Array as="points">
              <mxPoint x="125" y="180" />
            </Array>
          </mxGeometry>
        </mxCell>
        <mxCell id="dV8ylVzGYITSWxzMfHJX-28" style="edgeStyle=orthogonalEdgeStyle;rounded=0;orthogonalLoop=1;jettySize=auto;html=1;entryX=0;entryY=0.5;entryDx=0;entryDy=0;curved=1;" parent="1" source="dV8ylVzGYITSWxzMfHJX-1" target="dV8ylVzGYITSWxzMfHJX-15" edge="1">
          <mxGeometry relative="1" as="geometry">
            <Array as="points">
              <mxPoint x="125" y="420" />
            </Array>
          </mxGeometry>
        </mxCell>
        <mxCell id="dV8ylVzGYITSWxzMfHJX-29" style="edgeStyle=orthogonalEdgeStyle;rounded=0;orthogonalLoop=1;jettySize=auto;html=1;entryX=0;entryY=0.5;entryDx=0;entryDy=0;curved=1;" parent="1" source="dV8ylVzGYITSWxzMfHJX-1" target="dV8ylVzGYITSWxzMfHJX-20" edge="1">
          <mxGeometry relative="1" as="geometry">
            <Array as="points">
              <mxPoint x="125" y="580" />
              <mxPoint x="230" y="580" />
            </Array>
          </mxGeometry>
        </mxCell>
        <mxCell id="dV8ylVzGYITSWxzMfHJX-31" style="edgeStyle=orthogonalEdgeStyle;rounded=0;orthogonalLoop=1;jettySize=auto;html=1;entryX=0;entryY=0.5;entryDx=0;entryDy=0;curved=1;" parent="1" source="dV8ylVzGYITSWxzMfHJX-1" target="dV8ylVzGYITSWxzMfHJX-16" edge="1">
          <mxGeometry relative="1" as="geometry">
            <Array as="points">
              <mxPoint x="125" y="710" />
            </Array>
          </mxGeometry>
        </mxCell>
        <mxCell id="dV8ylVzGYITSWxzMfHJX-1" value="Cliente&amp;nbsp;" style="shape=umlActor;verticalLabelPosition=bottom;verticalAlign=top;html=1;outlineConnect=0;" parent="1" vertex="1">
          <mxGeometry x="110" y="40" width="30" height="60" as="geometry" />
        </mxCell>
        <mxCell id="dV8ylVzGYITSWxzMfHJX-22" value="" style="edgeStyle=orthogonalEdgeStyle;rounded=0;orthogonalLoop=1;jettySize=auto;html=1;curved=1;" parent="1" source="dV8ylVzGYITSWxzMfHJX-2" target="dV8ylVzGYITSWxzMfHJX-13" edge="1">
          <mxGeometry relative="1" as="geometry" />
        </mxCell>
        <mxCell id="dV8ylVzGYITSWxzMfHJX-2" value="Realizar cadastro&lt;div&gt;&lt;br&gt;&lt;/div&gt;" style="ellipse;whiteSpace=wrap;html=1;" parent="1" vertex="1">
          <mxGeometry x="220" y="10" width="120" height="80" as="geometry" />
        </mxCell>
        <mxCell id="dV8ylVzGYITSWxzMfHJX-35" style="edgeStyle=orthogonalEdgeStyle;rounded=0;orthogonalLoop=1;jettySize=auto;html=1;curved=1;" parent="1" source="dV8ylVzGYITSWxzMfHJX-3" target="dV8ylVzGYITSWxzMfHJX-20" edge="1">
          <mxGeometry relative="1" as="geometry">
            <Array as="points">
              <mxPoint x="675" y="580" />
            </Array>
          </mxGeometry>
        </mxCell>
        <mxCell id="dV8ylVzGYITSWxzMfHJX-37" style="edgeStyle=orthogonalEdgeStyle;rounded=0;orthogonalLoop=1;jettySize=auto;html=1;entryX=1;entryY=0.5;entryDx=0;entryDy=0;curved=1;" parent="1" source="dV8ylVzGYITSWxzMfHJX-3" target="dV8ylVzGYITSWxzMfHJX-19" edge="1">
          <mxGeometry relative="1" as="geometry">
            <Array as="points">
              <mxPoint x="670" y="290" />
            </Array>
          </mxGeometry>
        </mxCell>
        <mxCell id="dV8ylVzGYITSWxzMfHJX-3" value="Restaurante" style="shape=umlActor;verticalLabelPosition=bottom;verticalAlign=top;html=1;outlineConnect=0;" parent="1" vertex="1">
          <mxGeometry x="660" y="400" width="30" height="60" as="geometry" />
        </mxCell>
        <mxCell id="dV8ylVzGYITSWxzMfHJX-34" style="edgeStyle=orthogonalEdgeStyle;rounded=0;orthogonalLoop=1;jettySize=auto;html=1;curved=1;" parent="1" source="dV8ylVzGYITSWxzMfHJX-4" target="dV8ylVzGYITSWxzMfHJX-17" edge="1">
          <mxGeometry relative="1" as="geometry">
            <Array as="points">
              <mxPoint x="705" y="650" />
            </Array>
          </mxGeometry>
        </mxCell>
        <mxCell id="dV8ylVzGYITSWxzMfHJX-4" value="Entregador" style="shape=umlActor;verticalLabelPosition=bottom;verticalAlign=top;html=1;outlineConnect=0;" parent="1" vertex="1">
          <mxGeometry x="690" y="810" width="30" height="60" as="geometry" />
        </mxCell>
        <mxCell id="dV8ylVzGYITSWxzMfHJX-13" value="&lt;div&gt;Realizar Login&lt;/div&gt;" style="ellipse;whiteSpace=wrap;html=1;" parent="1" vertex="1">
          <mxGeometry x="414" y="30" width="120" height="80" as="geometry" />
        </mxCell>
        <mxCell id="dV8ylVzGYITSWxzMfHJX-14" value="Pesquisar Restaurante" style="ellipse;whiteSpace=wrap;html=1;" parent="1" vertex="1">
          <mxGeometry x="220" y="120" width="120" height="80" as="geometry" />
        </mxCell>
        <mxCell id="dV8ylVzGYITSWxzMfHJX-40" value="" style="edgeStyle=orthogonalEdgeStyle;rounded=0;orthogonalLoop=1;jettySize=auto;html=1;curved=1;" parent="1" source="dV8ylVzGYITSWxzMfHJX-15" target="dV8ylVzGYITSWxzMfHJX-38" edge="1">
          <mxGeometry relative="1" as="geometry">
            <Array as="points">
              <mxPoint x="290" y="370" />
              <mxPoint x="490" y="370" />
            </Array>
          </mxGeometry>
        </mxCell>
        <mxCell id="dV8ylVzGYITSWxzMfHJX-41" value="" style="edgeStyle=orthogonalEdgeStyle;rounded=0;orthogonalLoop=1;jettySize=auto;html=1;dashed=1;endArrow=open;endFill=0;curved=1;" parent="1" source="dV8ylVzGYITSWxzMfHJX-38" target="dV8ylVzGYITSWxzMfHJX-15" edge="1">
          <mxGeometry relative="1" as="geometry">
            <Array as="points">
              <mxPoint x="410" y="420" />
              <mxPoint x="410" y="420" />
            </Array>
          </mxGeometry>
        </mxCell>
        <mxCell id="dV8ylVzGYITSWxzMfHJX-42" value="Extend" style="edgeLabel;html=1;align=center;verticalAlign=middle;resizable=0;points=[];" parent="dV8ylVzGYITSWxzMfHJX-41" vertex="1" connectable="0">
          <mxGeometry x="-0.1991" y="-4" relative="1" as="geometry">
            <mxPoint as="offset" />
          </mxGeometry>
        </mxCell>
        <mxCell id="dV8ylVzGYITSWxzMfHJX-43" value="" style="edgeStyle=orthogonalEdgeStyle;rounded=0;orthogonalLoop=1;jettySize=auto;html=1;endArrow=open;endFill=0;dashed=1;curved=1;" parent="1" source="dV8ylVzGYITSWxzMfHJX-20" target="dV8ylVzGYITSWxzMfHJX-15" edge="1">
          <mxGeometry relative="1" as="geometry" />
        </mxCell>
        <mxCell id="dV8ylVzGYITSWxzMfHJX-45" value="Include" style="edgeLabel;html=1;align=center;verticalAlign=middle;resizable=0;points=[];" parent="dV8ylVzGYITSWxzMfHJX-43" vertex="1" connectable="0">
          <mxGeometry x="0.0447" y="3" relative="1" as="geometry">
            <mxPoint as="offset" />
          </mxGeometry>
        </mxCell>
        <mxCell id="dV8ylVzGYITSWxzMfHJX-15" value="Realizar pedido" style="ellipse;whiteSpace=wrap;html=1;" parent="1" vertex="1">
          <mxGeometry x="230" y="380" width="120" height="80" as="geometry" />
        </mxCell>
        <mxCell id="dV8ylVzGYITSWxzMfHJX-51" value="" style="edgeStyle=orthogonalEdgeStyle;rounded=0;orthogonalLoop=1;jettySize=auto;html=1;endArrow=open;endFill=0;dashed=1;curved=1;" parent="1" source="dV8ylVzGYITSWxzMfHJX-16" target="dV8ylVzGYITSWxzMfHJX-20" edge="1">
          <mxGeometry relative="1" as="geometry" />
        </mxCell>
        <mxCell id="dV8ylVzGYITSWxzMfHJX-52" value="Include" style="edgeLabel;html=1;align=center;verticalAlign=middle;resizable=0;points=[];" parent="dV8ylVzGYITSWxzMfHJX-51" vertex="1" connectable="0">
          <mxGeometry x="-0.44" y="1" relative="1" as="geometry">
            <mxPoint as="offset" />
          </mxGeometry>
        </mxCell>
        <mxCell id="dV8ylVzGYITSWxzMfHJX-16" value="Realizar pagamento" style="ellipse;whiteSpace=wrap;html=1;" parent="1" vertex="1">
          <mxGeometry x="230" y="670" width="120" height="80" as="geometry" />
        </mxCell>
        <mxCell id="dV8ylVzGYITSWxzMfHJX-17" value="Entregador leva a entrega&amp;nbsp;" style="ellipse;whiteSpace=wrap;html=1;" parent="1" vertex="1">
          <mxGeometry x="520" y="610" width="120" height="80" as="geometry" />
        </mxCell>
        <mxCell id="dV8ylVzGYITSWxzMfHJX-54" value="" style="edgeStyle=orthogonalEdgeStyle;rounded=0;orthogonalLoop=1;jettySize=auto;html=1;dashed=1;endArrow=open;endFill=0;curved=1;" parent="1" source="dV8ylVzGYITSWxzMfHJX-18" target="dV8ylVzGYITSWxzMfHJX-16" edge="1">
          <mxGeometry relative="1" as="geometry" />
        </mxCell>
        <mxCell id="dV8ylVzGYITSWxzMfHJX-55" value="Extend" style="edgeLabel;html=1;align=center;verticalAlign=middle;resizable=0;points=[];" parent="dV8ylVzGYITSWxzMfHJX-54" vertex="1" connectable="0">
          <mxGeometry x="-0.016" y="1" relative="1" as="geometry">
            <mxPoint as="offset" />
          </mxGeometry>
        </mxCell>
        <mxCell id="dV8ylVzGYITSWxzMfHJX-18" value="Realizar avaliacao" style="ellipse;whiteSpace=wrap;html=1;" parent="1" vertex="1">
          <mxGeometry x="230" y="800" width="120" height="80" as="geometry" />
        </mxCell>
        <mxCell id="dV8ylVzGYITSWxzMfHJX-46" value="" style="edgeStyle=orthogonalEdgeStyle;rounded=0;orthogonalLoop=1;jettySize=auto;html=1;endArrow=open;endFill=0;dashed=1;curved=1;" parent="1" source="dV8ylVzGYITSWxzMfHJX-19" target="dV8ylVzGYITSWxzMfHJX-14" edge="1">
          <mxGeometry relative="1" as="geometry" />
        </mxCell>
        <mxCell id="dV8ylVzGYITSWxzMfHJX-48" value="Include" style="edgeLabel;html=1;align=center;verticalAlign=middle;resizable=0;points=[];" parent="dV8ylVzGYITSWxzMfHJX-46" vertex="1" connectable="0">
          <mxGeometry x="-0.22" y="-3" relative="1" as="geometry">
            <mxPoint as="offset" />
          </mxGeometry>
        </mxCell>
        <mxCell id="dV8ylVzGYITSWxzMfHJX-19" value="Ver cardapio" style="ellipse;whiteSpace=wrap;html=1;" parent="1" vertex="1">
          <mxGeometry x="220" y="250" width="120" height="80" as="geometry" />
        </mxCell>
        <mxCell id="dV8ylVzGYITSWxzMfHJX-20" value="Status do pedido" style="ellipse;whiteSpace=wrap;html=1;" parent="1" vertex="1">
          <mxGeometry x="230" y="545" width="120" height="80" as="geometry" />
        </mxCell>
        <mxCell id="dV8ylVzGYITSWxzMfHJX-27" style="edgeStyle=orthogonalEdgeStyle;rounded=0;orthogonalLoop=1;jettySize=auto;html=1;entryX=0;entryY=0.625;entryDx=0;entryDy=0;entryPerimeter=0;curved=1;" parent="1" source="dV8ylVzGYITSWxzMfHJX-1" target="dV8ylVzGYITSWxzMfHJX-19" edge="1">
          <mxGeometry relative="1" as="geometry">
            <Array as="points">
              <mxPoint x="125" y="300" />
            </Array>
          </mxGeometry>
        </mxCell>
        <mxCell id="dV8ylVzGYITSWxzMfHJX-32" style="edgeStyle=orthogonalEdgeStyle;rounded=0;orthogonalLoop=1;jettySize=auto;html=1;entryX=0.003;entryY=0.59;entryDx=0;entryDy=0;entryPerimeter=0;curved=1;" parent="1" source="dV8ylVzGYITSWxzMfHJX-1" target="dV8ylVzGYITSWxzMfHJX-18" edge="1">
          <mxGeometry relative="1" as="geometry">
            <Array as="points">
              <mxPoint x="125" y="847" />
            </Array>
          </mxGeometry>
        </mxCell>
        <mxCell id="dV8ylVzGYITSWxzMfHJX-38" value="Cancelar pedido" style="ellipse;whiteSpace=wrap;html=1;" parent="1" vertex="1">
          <mxGeometry x="430" y="390" width="120" height="80" as="geometry" />
        </mxCell>
        <mxCell id="dV8ylVzGYITSWxzMfHJX-49" value="" style="edgeStyle=orthogonalEdgeStyle;rounded=0;orthogonalLoop=1;jettySize=auto;html=1;endArrow=open;endFill=0;dashed=1;entryX=0.303;entryY=1;entryDx=0;entryDy=0;entryPerimeter=0;curved=1;" parent="1" target="dV8ylVzGYITSWxzMfHJX-19" edge="1">
          <mxGeometry relative="1" as="geometry">
            <mxPoint x="260" y="390" as="sourcePoint" />
            <mxPoint x="260" y="350" as="targetPoint" />
            <Array as="points">
              <mxPoint x="260" y="330" />
            </Array>
          </mxGeometry>
        </mxCell>
        <mxCell id="dV8ylVzGYITSWxzMfHJX-50" value="Include" style="edgeLabel;html=1;align=center;verticalAlign=middle;resizable=0;points=[];" parent="dV8ylVzGYITSWxzMfHJX-49" vertex="1" connectable="0">
          <mxGeometry x="-0.22" y="-3" relative="1" as="geometry">
            <mxPoint x="-3" y="-4" as="offset" />
          </mxGeometry>
        </mxCell>
      </root>
    </mxGraphModel>
  </diagram>
  <diagram id="tH9uA62qPw_yrN_leq1N" name="PÃ¡gina-2">
    <mxGraphModel dx="2088" dy="1885" grid="1" gridSize="10" guides="1" tooltips="1" connect="1" arrows="1" fold="1" page="1" pageScale="1" pageWidth="827" pageHeight="1169" math="0" shadow="0">
      <root>
        <mxCell id="0" />
        <mxCell id="1" parent="0" />
        <mxCell id="03_I65g0o8DUFTZq-Ibo-1" value="Usuario" style="swimlane;fontStyle=1;align=center;verticalAlign=top;childLayout=stackLayout;horizontal=1;startSize=26;horizontalStack=0;resizeParent=1;resizeParentMax=0;resizeLast=0;collapsible=1;marginBottom=0;whiteSpace=wrap;html=1;" parent="1" vertex="1">
          <mxGeometry x="-290" y="585" width="160" height="242" as="geometry" />
        </mxCell>
        <mxCell id="xryoZc7wfkYHjH5ZisCK-3" value="Id&lt;span style=&quot;font-weight: 700; text-align: center;&quot;&gt;Usuario&lt;/span&gt;: GUID" style="text;strokeColor=none;fillColor=none;align=left;verticalAlign=top;spacingLeft=4;spacingRight=4;overflow=hidden;rotatable=0;points=[[0,0.5],[1,0.5]];portConstraint=eastwest;whiteSpace=wrap;html=1;" parent="03_I65g0o8DUFTZq-Ibo-1" vertex="1">
          <mxGeometry y="26" width="160" height="26" as="geometry" />
        </mxCell>
        <mxCell id="XDnAhlvOBPhnoxwkkNBC-11" value="IdEndereco : FK" style="text;strokeColor=none;fillColor=none;align=left;verticalAlign=top;spacingLeft=4;spacingRight=4;overflow=hidden;rotatable=0;points=[[0,0.5],[1,0.5]];portConstraint=eastwest;whiteSpace=wrap;html=1;" parent="03_I65g0o8DUFTZq-Ibo-1" vertex="1">
          <mxGeometry y="52" width="160" height="26" as="geometry" />
        </mxCell>
        <mxCell id="03_I65g0o8DUFTZq-Ibo-2" value="CPF&lt;div&gt;&lt;br&gt;&lt;/div&gt;" style="text;strokeColor=none;fillColor=none;align=left;verticalAlign=top;spacingLeft=4;spacingRight=4;overflow=hidden;rotatable=0;points=[[0,0.5],[1,0.5]];portConstraint=eastwest;whiteSpace=wrap;html=1;" parent="03_I65g0o8DUFTZq-Ibo-1" vertex="1">
          <mxGeometry y="78" width="160" height="26" as="geometry" />
        </mxCell>
        <mxCell id="V1dFfJg4YMAZ_t9J__VD-1" value="Nome" style="text;strokeColor=none;fillColor=none;align=left;verticalAlign=top;spacingLeft=4;spacingRight=4;overflow=hidden;rotatable=0;points=[[0,0.5],[1,0.5]];portConstraint=eastwest;whiteSpace=wrap;html=1;" parent="03_I65g0o8DUFTZq-Ibo-1" vertex="1">
          <mxGeometry y="104" width="160" height="26" as="geometry" />
        </mxCell>
        <mxCell id="V1dFfJg4YMAZ_t9J__VD-3" value="DataNascimento" style="text;strokeColor=none;fillColor=none;align=left;verticalAlign=top;spacingLeft=4;spacingRight=4;overflow=hidden;rotatable=0;points=[[0,0.5],[1,0.5]];portConstraint=eastwest;whiteSpace=wrap;html=1;" parent="03_I65g0o8DUFTZq-Ibo-1" vertex="1">
          <mxGeometry y="130" width="160" height="26" as="geometry" />
        </mxCell>
        <mxCell id="V1dFfJg4YMAZ_t9J__VD-4" value="Email" style="text;strokeColor=none;fillColor=none;align=left;verticalAlign=top;spacingLeft=4;spacingRight=4;overflow=hidden;rotatable=0;points=[[0,0.5],[1,0.5]];portConstraint=eastwest;whiteSpace=wrap;html=1;" parent="03_I65g0o8DUFTZq-Ibo-1" vertex="1">
          <mxGeometry y="156" width="160" height="26" as="geometry" />
        </mxCell>
        <mxCell id="03_I65g0o8DUFTZq-Ibo-3" value="" style="line;strokeWidth=1;fillColor=none;align=left;verticalAlign=middle;spacingTop=-1;spacingLeft=3;spacingRight=3;rotatable=0;labelPosition=right;points=[];portConstraint=eastwest;strokeColor=inherit;" parent="03_I65g0o8DUFTZq-Ibo-1" vertex="1">
          <mxGeometry y="182" width="160" height="8" as="geometry" />
        </mxCell>
        <mxCell id="03_I65g0o8DUFTZq-Ibo-4" value="Registrar()" style="text;strokeColor=none;fillColor=none;align=left;verticalAlign=top;spacingLeft=4;spacingRight=4;overflow=hidden;rotatable=0;points=[[0,0.5],[1,0.5]];portConstraint=eastwest;whiteSpace=wrap;html=1;" parent="03_I65g0o8DUFTZq-Ibo-1" vertex="1">
          <mxGeometry y="190" width="160" height="26" as="geometry" />
        </mxCell>
        <mxCell id="V1dFfJg4YMAZ_t9J__VD-2" value="Login()" style="text;strokeColor=none;fillColor=none;align=left;verticalAlign=top;spacingLeft=4;spacingRight=4;overflow=hidden;rotatable=0;points=[[0,0.5],[1,0.5]];portConstraint=eastwest;whiteSpace=wrap;html=1;" parent="03_I65g0o8DUFTZq-Ibo-1" vertex="1">
          <mxGeometry y="216" width="160" height="26" as="geometry" />
        </mxCell>
        <mxCell id="VuiDZ77Iqz1jMpk9gF9v-2" value="" style="edgeStyle=orthogonalEdgeStyle;rounded=0;orthogonalLoop=1;jettySize=auto;html=1;entryX=0.5;entryY=0;entryDx=0;entryDy=0;endArrow=none;endFill=0;" parent="1" source="03_I65g0o8DUFTZq-Ibo-5" target="XDnAhlvOBPhnoxwkkNBC-2" edge="1">
          <mxGeometry relative="1" as="geometry">
            <Array as="points">
              <mxPoint x="360" y="460" />
            </Array>
          </mxGeometry>
        </mxCell>
        <mxCell id="03_I65g0o8DUFTZq-Ibo-5" value="Restaurante&amp;nbsp;" style="swimlane;fontStyle=1;align=center;verticalAlign=top;childLayout=stackLayout;horizontal=1;startSize=26;horizontalStack=0;resizeParent=1;resizeParentMax=0;resizeLast=0;collapsible=1;marginBottom=0;whiteSpace=wrap;html=1;" parent="1" vertex="1">
          <mxGeometry x="280" y="330" width="160" height="190" as="geometry" />
        </mxCell>
        <mxCell id="xryoZc7wfkYHjH5ZisCK-4" value="IdRestaurante : GUID" style="text;strokeColor=none;fillColor=none;align=left;verticalAlign=top;spacingLeft=4;spacingRight=4;overflow=hidden;rotatable=0;points=[[0,0.5],[1,0.5]];portConstraint=eastwest;whiteSpace=wrap;html=1;" parent="03_I65g0o8DUFTZq-Ibo-5" vertex="1">
          <mxGeometry y="26" width="160" height="26" as="geometry" />
        </mxCell>
        <mxCell id="XDnAhlvOBPhnoxwkkNBC-1" value="IdCardapio : FK" style="text;strokeColor=none;fillColor=none;align=left;verticalAlign=top;spacingLeft=4;spacingRight=4;overflow=hidden;rotatable=0;points=[[0,0.5],[1,0.5]];portConstraint=eastwest;whiteSpace=wrap;html=1;" parent="03_I65g0o8DUFTZq-Ibo-5" vertex="1">
          <mxGeometry y="52" width="160" height="26" as="geometry" />
        </mxCell>
        <mxCell id="XDnAhlvOBPhnoxwkkNBC-10" value="IdEndereco : FK" style="text;strokeColor=none;fillColor=none;align=left;verticalAlign=top;spacingLeft=4;spacingRight=4;overflow=hidden;rotatable=0;points=[[0,0.5],[1,0.5]];portConstraint=eastwest;whiteSpace=wrap;html=1;" parent="03_I65g0o8DUFTZq-Ibo-5" vertex="1">
          <mxGeometry y="78" width="160" height="26" as="geometry" />
        </mxCell>
        <mxCell id="03_I65g0o8DUFTZq-Ibo-6" value="Nome : String" style="text;strokeColor=none;fillColor=none;align=left;verticalAlign=top;spacingLeft=4;spacingRight=4;overflow=hidden;rotatable=0;points=[[0,0.5],[1,0.5]];portConstraint=eastwest;whiteSpace=wrap;html=1;" parent="03_I65g0o8DUFTZq-Ibo-5" vertex="1">
          <mxGeometry y="104" width="160" height="26" as="geometry" />
        </mxCell>
        <mxCell id="NTE5_C6JOAJzMmoHtah9-2" value="&amp;nbsp;CNPJ: String" style="text;strokeColor=none;fillColor=none;align=left;verticalAlign=top;spacingLeft=4;spacingRight=4;overflow=hidden;rotatable=0;points=[[0,0.5],[1,0.5]];portConstraint=eastwest;whiteSpace=wrap;html=1;" parent="03_I65g0o8DUFTZq-Ibo-5" vertex="1">
          <mxGeometry y="130" width="160" height="26" as="geometry" />
        </mxCell>
        <mxCell id="03_I65g0o8DUFTZq-Ibo-7" value="" style="line;strokeWidth=1;fillColor=none;align=left;verticalAlign=middle;spacingTop=-1;spacingLeft=3;spacingRight=3;rotatable=0;labelPosition=right;points=[];portConstraint=eastwest;strokeColor=inherit;" parent="03_I65g0o8DUFTZq-Ibo-5" vertex="1">
          <mxGeometry y="156" width="160" height="8" as="geometry" />
        </mxCell>
        <mxCell id="NTE5_C6JOAJzMmoHtah9-1" style="text;strokeColor=none;fillColor=none;align=left;verticalAlign=top;spacingLeft=4;spacingRight=4;overflow=hidden;rotatable=0;points=[[0,0.5],[1,0.5]];portConstraint=eastwest;whiteSpace=wrap;html=1;" parent="03_I65g0o8DUFTZq-Ibo-5" vertex="1">
          <mxGeometry y="164" width="160" height="26" as="geometry" />
        </mxCell>
        <mxCell id="03_I65g0o8DUFTZq-Ibo-10" value="Entregador" style="swimlane;fontStyle=1;align=center;verticalAlign=top;childLayout=stackLayout;horizontal=1;startSize=26;horizontalStack=0;resizeParent=1;resizeParentMax=0;resizeLast=0;collapsible=1;marginBottom=0;whiteSpace=wrap;html=1;" parent="1" vertex="1">
          <mxGeometry x="10" y="-200" width="160" height="164" as="geometry">
            <mxRectangle x="550" y="80" width="100" height="30" as="alternateBounds" />
          </mxGeometry>
        </mxCell>
        <mxCell id="xryoZc7wfkYHjH5ZisCK-6" value="IdEntregador" style="text;strokeColor=none;fillColor=none;align=left;verticalAlign=top;spacingLeft=4;spacingRight=4;overflow=hidden;rotatable=0;points=[[0,0.5],[1,0.5]];portConstraint=eastwest;whiteSpace=wrap;html=1;" parent="03_I65g0o8DUFTZq-Ibo-10" vertex="1">
          <mxGeometry y="26" width="160" height="26" as="geometry" />
        </mxCell>
        <mxCell id="03_I65g0o8DUFTZq-Ibo-11" value="&lt;div&gt;IdUsuario&lt;/div&gt;" style="text;strokeColor=none;fillColor=none;align=left;verticalAlign=top;spacingLeft=4;spacingRight=4;overflow=hidden;rotatable=0;points=[[0,0.5],[1,0.5]];portConstraint=eastwest;whiteSpace=wrap;html=1;" parent="03_I65g0o8DUFTZq-Ibo-10" vertex="1">
          <mxGeometry y="52" width="160" height="26" as="geometry" />
        </mxCell>
        <mxCell id="NTE5_C6JOAJzMmoHtah9-4" value="CNH: string" style="text;strokeColor=none;fillColor=none;align=left;verticalAlign=top;spacingLeft=4;spacingRight=4;overflow=hidden;rotatable=0;points=[[0,0.5],[1,0.5]];portConstraint=eastwest;whiteSpace=wrap;html=1;" parent="03_I65g0o8DUFTZq-Ibo-10" vertex="1">
          <mxGeometry y="78" width="160" height="26" as="geometry" />
        </mxCell>
        <mxCell id="03_I65g0o8DUFTZq-Ibo-12" value="" style="line;strokeWidth=1;fillColor=none;align=left;verticalAlign=middle;spacingTop=-1;spacingLeft=3;spacingRight=3;rotatable=0;labelPosition=right;points=[];portConstraint=eastwest;strokeColor=inherit;" parent="03_I65g0o8DUFTZq-Ibo-10" vertex="1">
          <mxGeometry y="104" width="160" height="8" as="geometry" />
        </mxCell>
        <mxCell id="03_I65g0o8DUFTZq-Ibo-13" value="ReceberPedido()" style="text;strokeColor=none;fillColor=none;align=left;verticalAlign=top;spacingLeft=4;spacingRight=4;overflow=hidden;rotatable=0;points=[[0,0.5],[1,0.5]];portConstraint=eastwest;whiteSpace=wrap;html=1;" parent="03_I65g0o8DUFTZq-Ibo-10" vertex="1">
          <mxGeometry y="112" width="160" height="26" as="geometry" />
        </mxCell>
        <mxCell id="nf3vsR54msGcpsm8It1r-1" value="Registrar()" style="text;strokeColor=none;fillColor=none;align=left;verticalAlign=top;spacingLeft=4;spacingRight=4;overflow=hidden;rotatable=0;points=[[0,0.5],[1,0.5]];portConstraint=eastwest;whiteSpace=wrap;html=1;" parent="03_I65g0o8DUFTZq-Ibo-10" vertex="1">
          <mxGeometry y="138" width="160" height="26" as="geometry" />
        </mxCell>
        <mxCell id="nf3vsR54msGcpsm8It1r-2" value="Cardapio" style="swimlane;fontStyle=1;align=center;verticalAlign=top;childLayout=stackLayout;horizontal=1;startSize=26;horizontalStack=0;resizeParent=1;resizeParentMax=0;resizeLast=0;collapsible=1;marginBottom=0;whiteSpace=wrap;html=1;" parent="1" vertex="1">
          <mxGeometry x="570" y="123" width="160" height="112" as="geometry" />
        </mxCell>
        <mxCell id="xryoZc7wfkYHjH5ZisCK-5" value="IdCardpio" style="text;strokeColor=none;fillColor=none;align=left;verticalAlign=top;spacingLeft=4;spacingRight=4;overflow=hidden;rotatable=0;points=[[0,0.5],[1,0.5]];portConstraint=eastwest;whiteSpace=wrap;html=1;" parent="nf3vsR54msGcpsm8It1r-2" vertex="1">
          <mxGeometry y="26" width="160" height="26" as="geometry" />
        </mxCell>
        <mxCell id="XDnAhlvOBPhnoxwkkNBC-14" value="IdRestaurante" style="text;strokeColor=none;fillColor=none;align=left;verticalAlign=top;spacingLeft=4;spacingRight=4;overflow=hidden;rotatable=0;points=[[0,0.5],[1,0.5]];portConstraint=eastwest;whiteSpace=wrap;html=1;" parent="nf3vsR54msGcpsm8It1r-2" vertex="1">
          <mxGeometry y="52" width="160" height="26" as="geometry" />
        </mxCell>
        <mxCell id="nf3vsR54msGcpsm8It1r-6" value="" style="line;strokeWidth=1;fillColor=none;align=left;verticalAlign=middle;spacingTop=-1;spacingLeft=3;spacingRight=3;rotatable=0;labelPosition=right;points=[];portConstraint=eastwest;strokeColor=inherit;" parent="nf3vsR54msGcpsm8It1r-2" vertex="1">
          <mxGeometry y="78" width="160" height="8" as="geometry" />
        </mxCell>
        <mxCell id="nf3vsR54msGcpsm8It1r-8" value="VizualizarProduto()" style="text;strokeColor=none;fillColor=none;align=left;verticalAlign=top;spacingLeft=4;spacingRight=4;overflow=hidden;rotatable=0;points=[[0,0.5],[1,0.5]];portConstraint=eastwest;whiteSpace=wrap;html=1;" parent="nf3vsR54msGcpsm8It1r-2" vertex="1">
          <mxGeometry y="86" width="160" height="26" as="geometry" />
        </mxCell>
        <mxCell id="fjstJFPZqSzkOAHHpW8K-1" value="Pedidos" style="swimlane;fontStyle=1;align=center;verticalAlign=top;childLayout=stackLayout;horizontal=1;startSize=26;horizontalStack=0;resizeParent=1;resizeParentMax=0;resizeLast=0;collapsible=1;marginBottom=0;whiteSpace=wrap;html=1;" parent="1" vertex="1">
          <mxGeometry y="110" width="160" height="242" as="geometry" />
        </mxCell>
        <mxCell id="fjstJFPZqSzkOAHHpW8K-2" value="IdPedidos : GUID" style="text;strokeColor=none;fillColor=none;align=left;verticalAlign=top;spacingLeft=4;spacingRight=4;overflow=hidden;rotatable=0;points=[[0,0.5],[1,0.5]];portConstraint=eastwest;whiteSpace=wrap;html=1;" parent="fjstJFPZqSzkOAHHpW8K-1" vertex="1">
          <mxGeometry y="26" width="160" height="26" as="geometry" />
        </mxCell>
        <mxCell id="fjstJFPZqSzkOAHHpW8K-4" value="IdCliente : FK" style="text;strokeColor=none;fillColor=none;align=left;verticalAlign=top;spacingLeft=4;spacingRight=4;overflow=hidden;rotatable=0;points=[[0,0.5],[1,0.5]];portConstraint=eastwest;whiteSpace=wrap;html=1;" parent="fjstJFPZqSzkOAHHpW8K-1" vertex="1">
          <mxGeometry y="52" width="160" height="26" as="geometry" />
        </mxCell>
        <mxCell id="xryoZc7wfkYHjH5ZisCK-2" value="IdEntregador : FK" style="text;strokeColor=none;fillColor=none;align=left;verticalAlign=top;spacingLeft=4;spacingRight=4;overflow=hidden;rotatable=0;points=[[0,0.5],[1,0.5]];portConstraint=eastwest;whiteSpace=wrap;html=1;" parent="fjstJFPZqSzkOAHHpW8K-1" vertex="1">
          <mxGeometry y="78" width="160" height="26" as="geometry" />
        </mxCell>
        <mxCell id="y4TEjJvC1YpaE0Y58ZHR-9" value="IdStatus : FK" style="text;strokeColor=none;fillColor=none;align=left;verticalAlign=top;spacingLeft=4;spacingRight=4;overflow=hidden;rotatable=0;points=[[0,0.5],[1,0.5]];portConstraint=eastwest;whiteSpace=wrap;html=1;" parent="fjstJFPZqSzkOAHHpW8K-1" vertex="1">
          <mxGeometry y="104" width="160" height="26" as="geometry" />
        </mxCell>
        <mxCell id="Ikfv_M8ql6ByYhtJ_rR8-31" value="IdAvaliacao : FK" style="text;strokeColor=none;fillColor=none;align=left;verticalAlign=top;spacingLeft=4;spacingRight=4;overflow=hidden;rotatable=0;points=[[0,0.5],[1,0.5]];portConstraint=eastwest;whiteSpace=wrap;html=1;" parent="fjstJFPZqSzkOAHHpW8K-1" vertex="1">
          <mxGeometry y="130" width="160" height="26" as="geometry" />
        </mxCell>
        <mxCell id="Ikfv_M8ql6ByYhtJ_rR8-35" value="IdProduto : FK" style="text;strokeColor=none;fillColor=none;align=left;verticalAlign=top;spacingLeft=4;spacingRight=4;overflow=hidden;rotatable=0;points=[[0,0.5],[1,0.5]];portConstraint=eastwest;whiteSpace=wrap;html=1;" parent="fjstJFPZqSzkOAHHpW8K-1" vertex="1">
          <mxGeometry y="156" width="160" height="26" as="geometry" />
        </mxCell>
        <mxCell id="fjstJFPZqSzkOAHHpW8K-5" value="" style="line;strokeWidth=1;fillColor=none;align=left;verticalAlign=middle;spacingTop=-1;spacingLeft=3;spacingRight=3;rotatable=0;labelPosition=right;points=[];portConstraint=eastwest;strokeColor=inherit;" parent="fjstJFPZqSzkOAHHpW8K-1" vertex="1">
          <mxGeometry y="182" width="160" height="8" as="geometry" />
        </mxCell>
        <mxCell id="fjstJFPZqSzkOAHHpW8K-6" value="RealizarPedido()" style="text;strokeColor=none;fillColor=none;align=left;verticalAlign=top;spacingLeft=4;spacingRight=4;overflow=hidden;rotatable=0;points=[[0,0.5],[1,0.5]];portConstraint=eastwest;whiteSpace=wrap;html=1;" parent="fjstJFPZqSzkOAHHpW8K-1" vertex="1">
          <mxGeometry y="190" width="160" height="26" as="geometry" />
        </mxCell>
        <mxCell id="xryoZc7wfkYHjH5ZisCK-1" value="CancelarPedido()" style="text;strokeColor=none;fillColor=none;align=left;verticalAlign=top;spacingLeft=4;spacingRight=4;overflow=hidden;rotatable=0;points=[[0,0.5],[1,0.5]];portConstraint=eastwest;whiteSpace=wrap;html=1;" parent="fjstJFPZqSzkOAHHpW8K-1" vertex="1">
          <mxGeometry y="216" width="160" height="26" as="geometry" />
        </mxCell>
        <mxCell id="VuiDZ77Iqz1jMpk9gF9v-10" style="edgeStyle=orthogonalEdgeStyle;rounded=0;orthogonalLoop=1;jettySize=auto;html=1;entryX=0;entryY=0.5;entryDx=0;entryDy=0;endArrow=none;endFill=0;" parent="1" source="J4UuWcF50u0GPFM0t6C--1" target="fjstJFPZqSzkOAHHpW8K-6" edge="1">
          <mxGeometry relative="1" as="geometry">
            <Array as="points">
              <mxPoint x="-70" y="477" />
              <mxPoint x="-70" y="261" />
            </Array>
          </mxGeometry>
        </mxCell>
        <mxCell id="J4UuWcF50u0GPFM0t6C--1" value="Pagamento" style="swimlane;fontStyle=1;align=center;verticalAlign=top;childLayout=stackLayout;horizontal=1;startSize=26;horizontalStack=0;resizeParent=1;resizeParentMax=0;resizeLast=0;collapsible=1;marginBottom=0;whiteSpace=wrap;html=1;" parent="1" vertex="1">
          <mxGeometry x="-290" y="408" width="160" height="138" as="geometry" />
        </mxCell>
        <mxCell id="J4UuWcF50u0GPFM0t6C--2" value="IdPagamento : GUID" style="text;strokeColor=none;fillColor=none;align=left;verticalAlign=top;spacingLeft=4;spacingRight=4;overflow=hidden;rotatable=0;points=[[0,0.5],[1,0.5]];portConstraint=eastwest;whiteSpace=wrap;html=1;" parent="J4UuWcF50u0GPFM0t6C--1" vertex="1">
          <mxGeometry y="26" width="160" height="26" as="geometry" />
        </mxCell>
        <mxCell id="J4UuWcF50u0GPFM0t6C--3" value="IdPedido : FK" style="text;strokeColor=none;fillColor=none;align=left;verticalAlign=top;spacingLeft=4;spacingRight=4;overflow=hidden;rotatable=0;points=[[0,0.5],[1,0.5]];portConstraint=eastwest;whiteSpace=wrap;html=1;" parent="J4UuWcF50u0GPFM0t6C--1" vertex="1">
          <mxGeometry y="52" width="160" height="26" as="geometry" />
        </mxCell>
        <mxCell id="J4UuWcF50u0GPFM0t6C--6" value="" style="line;strokeWidth=1;fillColor=none;align=left;verticalAlign=middle;spacingTop=-1;spacingLeft=3;spacingRight=3;rotatable=0;labelPosition=right;points=[];portConstraint=eastwest;strokeColor=inherit;" parent="J4UuWcF50u0GPFM0t6C--1" vertex="1">
          <mxGeometry y="78" width="160" height="8" as="geometry" />
        </mxCell>
        <mxCell id="J4UuWcF50u0GPFM0t6C--7" value="RealizarPagamento()" style="text;strokeColor=none;fillColor=none;align=left;verticalAlign=top;spacingLeft=4;spacingRight=4;overflow=hidden;rotatable=0;points=[[0,0.5],[1,0.5]];portConstraint=eastwest;whiteSpace=wrap;html=1;" parent="J4UuWcF50u0GPFM0t6C--1" vertex="1">
          <mxGeometry y="86" width="160" height="26" as="geometry" />
        </mxCell>
        <mxCell id="J4UuWcF50u0GPFM0t6C--8" value="HistoricoPag()" style="text;strokeColor=none;fillColor=none;align=left;verticalAlign=top;spacingLeft=4;spacingRight=4;overflow=hidden;rotatable=0;points=[[0,0.5],[1,0.5]];portConstraint=eastwest;whiteSpace=wrap;html=1;" parent="J4UuWcF50u0GPFM0t6C--1" vertex="1">
          <mxGeometry y="112" width="160" height="26" as="geometry" />
        </mxCell>
        <mxCell id="XDnAhlvOBPhnoxwkkNBC-2" value="Endereco" style="swimlane;fontStyle=1;align=center;verticalAlign=top;childLayout=stackLayout;horizontal=1;startSize=26;horizontalStack=0;resizeParent=1;resizeParentMax=0;resizeLast=0;collapsible=1;marginBottom=0;whiteSpace=wrap;html=1;" parent="1" vertex="1">
          <mxGeometry x="280" y="637" width="160" height="138" as="geometry" />
        </mxCell>
        <mxCell id="XDnAhlvOBPhnoxwkkNBC-3" value="IdEndereco: GUID" style="text;strokeColor=none;fillColor=none;align=left;verticalAlign=top;spacingLeft=4;spacingRight=4;overflow=hidden;rotatable=0;points=[[0,0.5],[1,0.5]];portConstraint=eastwest;whiteSpace=wrap;html=1;" parent="XDnAhlvOBPhnoxwkkNBC-2" vertex="1">
          <mxGeometry y="26" width="160" height="26" as="geometry" />
        </mxCell>
        <mxCell id="XDnAhlvOBPhnoxwkkNBC-9" value="CEP : string" style="text;strokeColor=none;fillColor=none;align=left;verticalAlign=top;spacingLeft=4;spacingRight=4;overflow=hidden;rotatable=0;points=[[0,0.5],[1,0.5]];portConstraint=eastwest;whiteSpace=wrap;html=1;" parent="XDnAhlvOBPhnoxwkkNBC-2" vertex="1">
          <mxGeometry y="52" width="160" height="26" as="geometry" />
        </mxCell>
        <mxCell id="XDnAhlvOBPhnoxwkkNBC-8" value="numero : int" style="text;strokeColor=none;fillColor=none;align=left;verticalAlign=top;spacingLeft=4;spacingRight=4;overflow=hidden;rotatable=0;points=[[0,0.5],[1,0.5]];portConstraint=eastwest;whiteSpace=wrap;html=1;" parent="XDnAhlvOBPhnoxwkkNBC-2" vertex="1">
          <mxGeometry y="78" width="160" height="26" as="geometry" />
        </mxCell>
        <mxCell id="XDnAhlvOBPhnoxwkkNBC-5" value="" style="line;strokeWidth=1;fillColor=none;align=left;verticalAlign=middle;spacingTop=-1;spacingLeft=3;spacingRight=3;rotatable=0;labelPosition=right;points=[];portConstraint=eastwest;strokeColor=inherit;" parent="XDnAhlvOBPhnoxwkkNBC-2" vertex="1">
          <mxGeometry y="104" width="160" height="8" as="geometry" />
        </mxCell>
        <mxCell id="XDnAhlvOBPhnoxwkkNBC-6" value="RegistrarEndereco()" style="text;strokeColor=none;fillColor=none;align=left;verticalAlign=top;spacingLeft=4;spacingRight=4;overflow=hidden;rotatable=0;points=[[0,0.5],[1,0.5]];portConstraint=eastwest;whiteSpace=wrap;html=1;" parent="XDnAhlvOBPhnoxwkkNBC-2" vertex="1">
          <mxGeometry y="112" width="160" height="26" as="geometry" />
        </mxCell>
        <mxCell id="y4TEjJvC1YpaE0Y58ZHR-1" value="Status" style="swimlane;fontStyle=1;align=center;verticalAlign=top;childLayout=stackLayout;horizontal=1;startSize=26;horizontalStack=0;resizeParent=1;resizeParentMax=0;resizeLast=0;collapsible=1;marginBottom=0;whiteSpace=wrap;html=1;" parent="1" vertex="1">
          <mxGeometry x="-280" y="123" width="160" height="164" as="geometry" />
        </mxCell>
        <mxCell id="y4TEjJvC1YpaE0Y58ZHR-2" value="IdStatus : GUID" style="text;strokeColor=none;fillColor=none;align=left;verticalAlign=top;spacingLeft=4;spacingRight=4;overflow=hidden;rotatable=0;points=[[0,0.5],[1,0.5]];portConstraint=eastwest;whiteSpace=wrap;html=1;" parent="y4TEjJvC1YpaE0Y58ZHR-1" vertex="1">
          <mxGeometry y="26" width="160" height="26" as="geometry" />
        </mxCell>
        <mxCell id="y4TEjJvC1YpaE0Y58ZHR-3" value="Preparacao : String" style="text;strokeColor=none;fillColor=none;align=left;verticalAlign=top;spacingLeft=4;spacingRight=4;overflow=hidden;rotatable=0;points=[[0,0.5],[1,0.5]];portConstraint=eastwest;whiteSpace=wrap;html=1;" parent="y4TEjJvC1YpaE0Y58ZHR-1" vertex="1">
          <mxGeometry y="52" width="160" height="26" as="geometry" />
        </mxCell>
        <mxCell id="y4TEjJvC1YpaE0Y58ZHR-7" value="Caminho : string" style="text;strokeColor=none;fillColor=none;align=left;verticalAlign=top;spacingLeft=4;spacingRight=4;overflow=hidden;rotatable=0;points=[[0,0.5],[1,0.5]];portConstraint=eastwest;whiteSpace=wrap;html=1;" parent="y4TEjJvC1YpaE0Y58ZHR-1" vertex="1">
          <mxGeometry y="78" width="160" height="26" as="geometry" />
        </mxCell>
        <mxCell id="y4TEjJvC1YpaE0Y58ZHR-8" value="Entregue : bool" style="text;strokeColor=none;fillColor=none;align=left;verticalAlign=top;spacingLeft=4;spacingRight=4;overflow=hidden;rotatable=0;points=[[0,0.5],[1,0.5]];portConstraint=eastwest;whiteSpace=wrap;html=1;" parent="y4TEjJvC1YpaE0Y58ZHR-1" vertex="1">
          <mxGeometry y="104" width="160" height="26" as="geometry" />
        </mxCell>
        <mxCell id="y4TEjJvC1YpaE0Y58ZHR-4" value="" style="line;strokeWidth=1;fillColor=none;align=left;verticalAlign=middle;spacingTop=-1;spacingLeft=3;spacingRight=3;rotatable=0;labelPosition=right;points=[];portConstraint=eastwest;strokeColor=inherit;" parent="y4TEjJvC1YpaE0Y58ZHR-1" vertex="1">
          <mxGeometry y="130" width="160" height="8" as="geometry" />
        </mxCell>
        <mxCell id="y4TEjJvC1YpaE0Y58ZHR-6" value="AtualizarStatus()" style="text;strokeColor=none;fillColor=none;align=left;verticalAlign=top;spacingLeft=4;spacingRight=4;overflow=hidden;rotatable=0;points=[[0,0.5],[1,0.5]];portConstraint=eastwest;whiteSpace=wrap;html=1;" parent="y4TEjJvC1YpaE0Y58ZHR-1" vertex="1">
          <mxGeometry y="138" width="160" height="26" as="geometry" />
        </mxCell>
        <mxCell id="TlH0dsGZlJb3o837-JrZ-1" value="Avaliacao" style="swimlane;fontStyle=1;align=center;verticalAlign=top;childLayout=stackLayout;horizontal=1;startSize=26;horizontalStack=0;resizeParent=1;resizeParentMax=0;resizeLast=0;collapsible=1;marginBottom=0;whiteSpace=wrap;html=1;" parent="1" vertex="1">
          <mxGeometry x="260" y="-80" width="160" height="112" as="geometry" />
        </mxCell>
        <mxCell id="TlH0dsGZlJb3o837-JrZ-2" value="IdAvaliacao : GUID" style="text;strokeColor=none;fillColor=none;align=left;verticalAlign=top;spacingLeft=4;spacingRight=4;overflow=hidden;rotatable=0;points=[[0,0.5],[1,0.5]];portConstraint=eastwest;whiteSpace=wrap;html=1;" parent="TlH0dsGZlJb3o837-JrZ-1" vertex="1">
          <mxGeometry y="26" width="160" height="26" as="geometry" />
        </mxCell>
        <mxCell id="TlH0dsGZlJb3o837-JrZ-3" value="IdPedido" style="text;strokeColor=none;fillColor=none;align=left;verticalAlign=top;spacingLeft=4;spacingRight=4;overflow=hidden;rotatable=0;points=[[0,0.5],[1,0.5]];portConstraint=eastwest;whiteSpace=wrap;html=1;" parent="TlH0dsGZlJb3o837-JrZ-1" vertex="1">
          <mxGeometry y="52" width="160" height="26" as="geometry" />
        </mxCell>
        <mxCell id="m7T_oeU4B0aYNFCC2l-g-1" value="Comentario: string" style="text;strokeColor=none;fillColor=none;align=left;verticalAlign=top;spacingLeft=4;spacingRight=4;overflow=hidden;rotatable=0;points=[[0,0.5],[1,0.5]];portConstraint=eastwest;whiteSpace=wrap;html=1;" vertex="1" parent="TlH0dsGZlJb3o837-JrZ-1">
          <mxGeometry y="78" width="160" height="26" as="geometry" />
        </mxCell>
        <mxCell id="TlH0dsGZlJb3o837-JrZ-5" value="" style="line;strokeWidth=1;fillColor=none;align=left;verticalAlign=middle;spacingTop=-1;spacingLeft=3;spacingRight=3;rotatable=0;labelPosition=right;points=[];portConstraint=eastwest;strokeColor=inherit;" parent="TlH0dsGZlJb3o837-JrZ-1" vertex="1">
          <mxGeometry y="104" width="160" height="8" as="geometry" />
        </mxCell>
        <mxCell id="VuiDZ77Iqz1jMpk9gF9v-7" style="edgeStyle=orthogonalEdgeStyle;rounded=0;orthogonalLoop=1;jettySize=auto;html=1;entryX=0;entryY=0.5;entryDx=0;entryDy=0;exitX=1;exitY=0.5;exitDx=0;exitDy=0;endArrow=none;endFill=0;" parent="1" source="y4TEjJvC1YpaE0Y58ZHR-8" target="y4TEjJvC1YpaE0Y58ZHR-9" edge="1">
          <mxGeometry relative="1" as="geometry">
            <Array as="points">
              <mxPoint x="-120" y="227" />
            </Array>
          </mxGeometry>
        </mxCell>
        <mxCell id="VuiDZ77Iqz1jMpk9gF9v-9" style="edgeStyle=orthogonalEdgeStyle;rounded=0;orthogonalLoop=1;jettySize=auto;html=1;endArrow=none;endFill=0;" parent="1" source="03_I65g0o8DUFTZq-Ibo-10" edge="1">
          <mxGeometry relative="1" as="geometry">
            <mxPoint x="90" y="110" as="targetPoint" />
            <Array as="points">
              <mxPoint x="90" y="116" />
            </Array>
          </mxGeometry>
        </mxCell>
        <mxCell id="VuiDZ77Iqz1jMpk9gF9v-11" style="edgeStyle=orthogonalEdgeStyle;rounded=0;orthogonalLoop=1;jettySize=auto;html=1;entryX=0.994;entryY=0.17;entryDx=0;entryDy=0;entryPerimeter=0;endArrow=none;endFill=0;" parent="1" source="TlH0dsGZlJb3o837-JrZ-1" target="03_I65g0o8DUFTZq-Ibo-11" edge="1">
          <mxGeometry relative="1" as="geometry" />
        </mxCell>
        <mxCell id="VuiDZ77Iqz1jMpk9gF9v-12" style="edgeStyle=orthogonalEdgeStyle;rounded=0;orthogonalLoop=1;jettySize=auto;html=1;endArrow=none;endFill=0;entryX=1;entryY=0.5;entryDx=0;entryDy=0;" parent="1" source="TlH0dsGZlJb3o837-JrZ-3" target="fjstJFPZqSzkOAHHpW8K-2" edge="1">
          <mxGeometry relative="1" as="geometry">
            <mxPoint x="180" y="139" as="targetPoint" />
          </mxGeometry>
        </mxCell>
        <mxCell id="MlYVVDAM_kg7Al3SEtAq-2" value="Produto" style="swimlane;fontStyle=1;align=center;verticalAlign=top;childLayout=stackLayout;horizontal=1;startSize=26;horizontalStack=0;resizeParent=1;resizeParentMax=0;resizeLast=0;collapsible=1;marginBottom=0;whiteSpace=wrap;html=1;" parent="1" vertex="1">
          <mxGeometry x="550" y="400" width="160" height="216" as="geometry" />
        </mxCell>
        <mxCell id="MlYVVDAM_kg7Al3SEtAq-3" value="IdProduto" style="text;strokeColor=none;fillColor=none;align=left;verticalAlign=top;spacingLeft=4;spacingRight=4;overflow=hidden;rotatable=0;points=[[0,0.5],[1,0.5]];portConstraint=eastwest;whiteSpace=wrap;html=1;" parent="MlYVVDAM_kg7Al3SEtAq-2" vertex="1">
          <mxGeometry y="26" width="160" height="26" as="geometry" />
        </mxCell>
        <mxCell id="MlYVVDAM_kg7Al3SEtAq-4" value="IdCardpio" style="text;strokeColor=none;fillColor=none;align=left;verticalAlign=top;spacingLeft=4;spacingRight=4;overflow=hidden;rotatable=0;points=[[0,0.5],[1,0.5]];portConstraint=eastwest;whiteSpace=wrap;html=1;" parent="MlYVVDAM_kg7Al3SEtAq-2" vertex="1">
          <mxGeometry y="52" width="160" height="26" as="geometry" />
        </mxCell>
        <mxCell id="MlYVVDAM_kg7Al3SEtAq-5" value="NomeProduto" style="text;strokeColor=none;fillColor=none;align=left;verticalAlign=top;spacingLeft=4;spacingRight=4;overflow=hidden;rotatable=0;points=[[0,0.5],[1,0.5]];portConstraint=eastwest;whiteSpace=wrap;html=1;" parent="MlYVVDAM_kg7Al3SEtAq-2" vertex="1">
          <mxGeometry y="78" width="160" height="26" as="geometry" />
        </mxCell>
        <mxCell id="MlYVVDAM_kg7Al3SEtAq-6" value="PrecoProduto" style="text;strokeColor=none;fillColor=none;align=left;verticalAlign=top;spacingLeft=4;spacingRight=4;overflow=hidden;rotatable=0;points=[[0,0.5],[1,0.5]];portConstraint=eastwest;whiteSpace=wrap;html=1;" parent="MlYVVDAM_kg7Al3SEtAq-2" vertex="1">
          <mxGeometry y="104" width="160" height="26" as="geometry" />
        </mxCell>
        <mxCell id="MlYVVDAM_kg7Al3SEtAq-7" value="DescricaoProduto" style="text;strokeColor=none;fillColor=none;align=left;verticalAlign=top;spacingLeft=4;spacingRight=4;overflow=hidden;rotatable=0;points=[[0,0.5],[1,0.5]];portConstraint=eastwest;whiteSpace=wrap;html=1;" parent="MlYVVDAM_kg7Al3SEtAq-2" vertex="1">
          <mxGeometry y="130" width="160" height="26" as="geometry" />
        </mxCell>
        <mxCell id="MlYVVDAM_kg7Al3SEtAq-8" value="" style="line;strokeWidth=1;fillColor=none;align=left;verticalAlign=middle;spacingTop=-1;spacingLeft=3;spacingRight=3;rotatable=0;labelPosition=right;points=[];portConstraint=eastwest;strokeColor=inherit;" parent="MlYVVDAM_kg7Al3SEtAq-2" vertex="1">
          <mxGeometry y="156" width="160" height="8" as="geometry" />
        </mxCell>
        <mxCell id="MlYVVDAM_kg7Al3SEtAq-9" value="VizualizarProduto()" style="text;strokeColor=none;fillColor=none;align=left;verticalAlign=top;spacingLeft=4;spacingRight=4;overflow=hidden;rotatable=0;points=[[0,0.5],[1,0.5]];portConstraint=eastwest;whiteSpace=wrap;html=1;" parent="MlYVVDAM_kg7Al3SEtAq-2" vertex="1">
          <mxGeometry y="164" width="160" height="26" as="geometry" />
        </mxCell>
        <mxCell id="MlYVVDAM_kg7Al3SEtAq-10" value="CRUD()" style="text;strokeColor=none;fillColor=none;align=left;verticalAlign=top;spacingLeft=4;spacingRight=4;overflow=hidden;rotatable=0;points=[[0,0.5],[1,0.5]];portConstraint=eastwest;whiteSpace=wrap;html=1;" parent="MlYVVDAM_kg7Al3SEtAq-2" vertex="1">
          <mxGeometry y="190" width="160" height="26" as="geometry" />
        </mxCell>
        <mxCell id="MlYVVDAM_kg7Al3SEtAq-12" style="edgeStyle=orthogonalEdgeStyle;rounded=0;orthogonalLoop=1;jettySize=auto;html=1;entryX=0.561;entryY=0.007;entryDx=0;entryDy=0;entryPerimeter=0;endArrow=none;endFill=0;" parent="1" source="nf3vsR54msGcpsm8It1r-2" target="MlYVVDAM_kg7Al3SEtAq-2" edge="1">
          <mxGeometry relative="1" as="geometry">
            <Array as="points">
              <mxPoint x="640" y="391" />
            </Array>
          </mxGeometry>
        </mxCell>
        <mxCell id="MlYVVDAM_kg7Al3SEtAq-26" style="edgeStyle=orthogonalEdgeStyle;rounded=0;orthogonalLoop=1;jettySize=auto;html=1;endArrow=block;endFill=0;entryX=0.991;entryY=0.231;entryDx=0;entryDy=0;entryPerimeter=0;" parent="1" source="MlYVVDAM_kg7Al3SEtAq-15" target="V1dFfJg4YMAZ_t9J__VD-3" edge="1">
          <mxGeometry relative="1" as="geometry">
            <Array as="points">
              <mxPoint x="-90" y="710" />
              <mxPoint x="-90" y="721" />
            </Array>
          </mxGeometry>
        </mxCell>
        <mxCell id="MlYVVDAM_kg7Al3SEtAq-15" value="Cliente" style="swimlane;fontStyle=1;align=center;verticalAlign=top;childLayout=stackLayout;horizontal=1;startSize=26;horizontalStack=0;resizeParent=1;resizeParentMax=0;resizeLast=0;collapsible=1;marginBottom=0;whiteSpace=wrap;html=1;" parent="1" vertex="1">
          <mxGeometry x="20" y="616" width="160" height="138" as="geometry" />
        </mxCell>
        <mxCell id="MlYVVDAM_kg7Al3SEtAq-16" value="IdClient: GUID" style="text;strokeColor=none;fillColor=none;align=left;verticalAlign=top;spacingLeft=4;spacingRight=4;overflow=hidden;rotatable=0;points=[[0,0.5],[1,0.5]];portConstraint=eastwest;whiteSpace=wrap;html=1;" parent="MlYVVDAM_kg7Al3SEtAq-15" vertex="1">
          <mxGeometry y="26" width="160" height="26" as="geometry" />
        </mxCell>
        <mxCell id="MlYVVDAM_kg7Al3SEtAq-17" value="IdUsuario" style="text;strokeColor=none;fillColor=none;align=left;verticalAlign=top;spacingLeft=4;spacingRight=4;overflow=hidden;rotatable=0;points=[[0,0.5],[1,0.5]];portConstraint=eastwest;whiteSpace=wrap;html=1;" parent="MlYVVDAM_kg7Al3SEtAq-15" vertex="1">
          <mxGeometry y="52" width="160" height="26" as="geometry" />
        </mxCell>
        <mxCell id="MlYVVDAM_kg7Al3SEtAq-22" value="" style="line;strokeWidth=1;fillColor=none;align=left;verticalAlign=middle;spacingTop=-1;spacingLeft=3;spacingRight=3;rotatable=0;labelPosition=right;points=[];portConstraint=eastwest;strokeColor=inherit;" parent="MlYVVDAM_kg7Al3SEtAq-15" vertex="1">
          <mxGeometry y="78" width="160" height="8" as="geometry" />
        </mxCell>
        <mxCell id="MlYVVDAM_kg7Al3SEtAq-23" value="Registrar()" style="text;strokeColor=none;fillColor=none;align=left;verticalAlign=top;spacingLeft=4;spacingRight=4;overflow=hidden;rotatable=0;points=[[0,0.5],[1,0.5]];portConstraint=eastwest;whiteSpace=wrap;html=1;" parent="MlYVVDAM_kg7Al3SEtAq-15" vertex="1">
          <mxGeometry y="86" width="160" height="26" as="geometry" />
        </mxCell>
        <mxCell id="MlYVVDAM_kg7Al3SEtAq-24" value="Login()" style="text;strokeColor=none;fillColor=none;align=left;verticalAlign=top;spacingLeft=4;spacingRight=4;overflow=hidden;rotatable=0;points=[[0,0.5],[1,0.5]];portConstraint=eastwest;whiteSpace=wrap;html=1;" parent="MlYVVDAM_kg7Al3SEtAq-15" vertex="1">
          <mxGeometry y="112" width="160" height="26" as="geometry" />
        </mxCell>
        <mxCell id="MlYVVDAM_kg7Al3SEtAq-27" style="edgeStyle=orthogonalEdgeStyle;rounded=0;orthogonalLoop=1;jettySize=auto;html=1;entryX=0.625;entryY=0.992;entryDx=0;entryDy=0;entryPerimeter=0;endArrow=none;endFill=0;" parent="1" source="MlYVVDAM_kg7Al3SEtAq-15" target="xryoZc7wfkYHjH5ZisCK-1" edge="1">
          <mxGeometry relative="1" as="geometry" />
        </mxCell>
        <mxCell id="MlYVVDAM_kg7Al3SEtAq-29" value="1" style="text;html=1;align=center;verticalAlign=middle;resizable=0;points=[];autosize=1;strokeColor=none;fillColor=none;" parent="1" vertex="1">
          <mxGeometry x="-130" y="690" width="30" height="30" as="geometry" />
        </mxCell>
        <mxCell id="MlYVVDAM_kg7Al3SEtAq-14" style="edgeStyle=orthogonalEdgeStyle;rounded=0;orthogonalLoop=1;jettySize=auto;html=1;endArrow=diamondThin;endFill=1;exitX=0;exitY=0.5;exitDx=0;exitDy=0;entryX=1;entryY=0.5;entryDx=0;entryDy=0;" parent="1" source="XDnAhlvOBPhnoxwkkNBC-14" target="XDnAhlvOBPhnoxwkkNBC-1" edge="1">
          <mxGeometry relative="1" as="geometry">
            <Array as="points">
              <mxPoint x="480" y="188" />
              <mxPoint x="480" y="395" />
            </Array>
          </mxGeometry>
        </mxCell>
        <mxCell id="Ikfv_M8ql6ByYhtJ_rR8-5" value="n" style="text;html=1;align=center;verticalAlign=middle;resizable=0;points=[];autosize=1;strokeColor=none;fillColor=none;" parent="1" vertex="1">
          <mxGeometry x="605" y="238" width="30" height="30" as="geometry" />
        </mxCell>
        <mxCell id="Ikfv_M8ql6ByYhtJ_rR8-6" style="edgeStyle=orthogonalEdgeStyle;rounded=0;orthogonalLoop=1;jettySize=auto;html=1;entryX=0;entryY=0.5;entryDx=0;entryDy=0;endArrow=none;endFill=0;" parent="1" source="MlYVVDAM_kg7Al3SEtAq-17" target="XDnAhlvOBPhnoxwkkNBC-9" edge="1">
          <mxGeometry relative="1" as="geometry">
            <Array as="points">
              <mxPoint x="180" y="700" />
              <mxPoint x="280" y="700" />
            </Array>
          </mxGeometry>
        </mxCell>
        <mxCell id="Ikfv_M8ql6ByYhtJ_rR8-7" style="edgeStyle=orthogonalEdgeStyle;rounded=0;orthogonalLoop=1;jettySize=auto;html=1;endArrow=none;endFill=0;" parent="1" source="MlYVVDAM_kg7Al3SEtAq-3" target="fjstJFPZqSzkOAHHpW8K-4" edge="1">
          <mxGeometry relative="1" as="geometry">
            <Array as="points">
              <mxPoint x="760" y="439" />
              <mxPoint x="760" y="110" />
              <mxPoint x="355" y="110" />
              <mxPoint x="355" y="175" />
            </Array>
          </mxGeometry>
        </mxCell>
        <mxCell id="Ikfv_M8ql6ByYhtJ_rR8-9" value="n" style="text;html=1;align=center;verticalAlign=middle;resizable=0;points=[];autosize=1;strokeColor=none;fillColor=none;" parent="1" vertex="1">
          <mxGeometry x="165" y="188" width="30" height="30" as="geometry" />
        </mxCell>
        <mxCell id="Ikfv_M8ql6ByYhtJ_rR8-10" value="n" style="text;html=1;align=center;verticalAlign=middle;resizable=0;points=[];autosize=1;strokeColor=none;fillColor=none;" parent="1" vertex="1">
          <mxGeometry x="725" y="438" width="30" height="30" as="geometry" />
        </mxCell>
        <mxCell id="Ikfv_M8ql6ByYhtJ_rR8-11" value="1" style="text;html=1;align=center;verticalAlign=middle;resizable=0;points=[];autosize=1;strokeColor=none;fillColor=none;" parent="1" vertex="1">
          <mxGeometry x="615" y="368" width="30" height="30" as="geometry" />
        </mxCell>
        <mxCell id="Ikfv_M8ql6ByYhtJ_rR8-12" value="1" style="text;html=1;align=center;verticalAlign=middle;resizable=0;points=[];autosize=1;strokeColor=none;fillColor=none;" parent="1" vertex="1">
          <mxGeometry x="355" y="608" width="30" height="30" as="geometry" />
        </mxCell>
        <mxCell id="Ikfv_M8ql6ByYhtJ_rR8-14" value="1" style="text;html=1;align=center;verticalAlign=middle;resizable=0;points=[];autosize=1;strokeColor=none;fillColor=none;" parent="1" vertex="1">
          <mxGeometry x="355" y="520" width="30" height="30" as="geometry" />
        </mxCell>
        <mxCell id="Ikfv_M8ql6ByYhtJ_rR8-15" value="1" style="text;html=1;align=center;verticalAlign=middle;resizable=0;points=[];autosize=1;strokeColor=none;fillColor=none;" parent="1" vertex="1">
          <mxGeometry x="-15" y="678" width="30" height="30" as="geometry" />
        </mxCell>
        <mxCell id="Ikfv_M8ql6ByYhtJ_rR8-16" value="1" style="text;html=1;align=center;verticalAlign=middle;resizable=0;points=[];autosize=1;strokeColor=none;fillColor=none;" parent="1" vertex="1">
          <mxGeometry x="175" y="648" width="30" height="30" as="geometry" />
        </mxCell>
        <mxCell id="Ikfv_M8ql6ByYhtJ_rR8-17" value="1" style="text;html=1;align=center;verticalAlign=middle;resizable=0;points=[];autosize=1;strokeColor=none;fillColor=none;" parent="1" vertex="1">
          <mxGeometry x="255" y="658" width="30" height="30" as="geometry" />
        </mxCell>
        <mxCell id="Ikfv_M8ql6ByYhtJ_rR8-18" value="1" style="text;html=1;align=center;verticalAlign=middle;resizable=0;points=[];autosize=1;strokeColor=none;fillColor=none;" parent="1" vertex="1">
          <mxGeometry x="-135" y="478" width="30" height="30" as="geometry" />
        </mxCell>
        <mxCell id="Ikfv_M8ql6ByYhtJ_rR8-19" value="1" style="text;html=1;align=center;verticalAlign=middle;resizable=0;points=[];autosize=1;strokeColor=none;fillColor=none;" parent="1" vertex="1">
          <mxGeometry x="-25" y="258" width="30" height="30" as="geometry" />
        </mxCell>
        <mxCell id="Ikfv_M8ql6ByYhtJ_rR8-20" value="1" style="text;html=1;align=center;verticalAlign=middle;resizable=0;points=[];autosize=1;strokeColor=none;fillColor=none;" parent="1" vertex="1">
          <mxGeometry x="-125" y="198" width="30" height="30" as="geometry" />
        </mxCell>
        <mxCell id="Ikfv_M8ql6ByYhtJ_rR8-21" value="1" style="text;html=1;align=center;verticalAlign=middle;resizable=0;points=[];autosize=1;strokeColor=none;fillColor=none;" parent="1" vertex="1">
          <mxGeometry x="-35" y="198" width="30" height="30" as="geometry" />
        </mxCell>
        <mxCell id="Ikfv_M8ql6ByYhtJ_rR8-22" value="1" style="text;html=1;align=center;verticalAlign=middle;resizable=0;points=[];autosize=1;strokeColor=none;fillColor=none;" parent="1" vertex="1">
          <mxGeometry x="65" y="588" width="30" height="30" as="geometry" />
        </mxCell>
        <mxCell id="Ikfv_M8ql6ByYhtJ_rR8-23" value="n" style="text;html=1;align=center;verticalAlign=middle;resizable=0;points=[];autosize=1;strokeColor=none;fillColor=none;" parent="1" vertex="1">
          <mxGeometry x="65" y="326" width="30" height="30" as="geometry" />
        </mxCell>
        <mxCell id="Ikfv_M8ql6ByYhtJ_rR8-24" value="n" style="text;html=1;align=center;verticalAlign=middle;resizable=0;points=[];autosize=1;strokeColor=none;fillColor=none;" parent="1" vertex="1">
          <mxGeometry x="60" y="80" width="30" height="30" as="geometry" />
        </mxCell>
        <mxCell id="Ikfv_M8ql6ByYhtJ_rR8-25" value="1" style="text;html=1;align=center;verticalAlign=middle;resizable=0;points=[];autosize=1;strokeColor=none;fillColor=none;" parent="1" vertex="1">
          <mxGeometry x="65" y="-2" width="30" height="30" as="geometry" />
        </mxCell>
        <mxCell id="Ikfv_M8ql6ByYhtJ_rR8-26" value="1" style="text;html=1;align=center;verticalAlign=middle;resizable=0;points=[];autosize=1;strokeColor=none;fillColor=none;" parent="1" vertex="1">
          <mxGeometry x="165" y="-132" width="30" height="30" as="geometry" />
        </mxCell>
        <mxCell id="Ikfv_M8ql6ByYhtJ_rR8-27" value="1" style="text;html=1;align=center;verticalAlign=middle;resizable=0;points=[];autosize=1;strokeColor=none;fillColor=none;" parent="1" vertex="1">
          <mxGeometry x="315" y="-110" width="30" height="30" as="geometry" />
        </mxCell>
        <mxCell id="Ikfv_M8ql6ByYhtJ_rR8-28" value="1" style="text;html=1;align=center;verticalAlign=middle;resizable=0;points=[];autosize=1;strokeColor=none;fillColor=none;" parent="1" vertex="1">
          <mxGeometry x="155" y="118" width="30" height="30" as="geometry" />
        </mxCell>
        <mxCell id="Ikfv_M8ql6ByYhtJ_rR8-29" value="n" style="text;html=1;align=center;verticalAlign=middle;resizable=0;points=[];autosize=1;strokeColor=none;fillColor=none;" parent="1" vertex="1">
          <mxGeometry x="235" y="-12" width="30" height="30" as="geometry" />
        </mxCell>
        <mxCell id="Ikfv_M8ql6ByYhtJ_rR8-36" value="1" style="text;html=1;align=center;verticalAlign=middle;resizable=0;points=[];autosize=1;strokeColor=none;fillColor=none;" parent="1" vertex="1">
          <mxGeometry x="445" y="358" width="30" height="30" as="geometry" />
        </mxCell>
        <mxCell id="Ikfv_M8ql6ByYhtJ_rR8-37" value="1" style="text;html=1;align=center;verticalAlign=middle;resizable=0;points=[];autosize=1;strokeColor=none;fillColor=none;" parent="1" vertex="1">
          <mxGeometry x="535" y="198" width="30" height="30" as="geometry" />
        </mxCell>
        <mxCell id="1PvtOmECXOFWZpn0KM_e-1" style="edgeStyle=orthogonalEdgeStyle;rounded=0;orthogonalLoop=1;jettySize=auto;html=1;entryX=0;entryY=0.5;entryDx=0;entryDy=0;endArrow=none;endFill=0;exitX=0;exitY=0.5;exitDx=0;exitDy=0;" edge="1" parent="1" source="xryoZc7wfkYHjH5ZisCK-3" target="03_I65g0o8DUFTZq-Ibo-11">
          <mxGeometry relative="1" as="geometry">
            <Array as="points">
              <mxPoint x="-440" y="624" />
              <mxPoint x="-440" y="-135" />
            </Array>
            <mxPoint x="-478" y="468" as="sourcePoint" />
            <mxPoint x="-348" y="304" as="targetPoint" />
          </mxGeometry>
        </mxCell>
        <mxCell id="1PvtOmECXOFWZpn0KM_e-2" value="1" style="text;html=1;align=center;verticalAlign=middle;resizable=0;points=[];autosize=1;strokeColor=none;fillColor=none;" vertex="1" parent="1">
          <mxGeometry x="-20" y="-170" width="30" height="30" as="geometry" />
        </mxCell>
        <mxCell id="1PvtOmECXOFWZpn0KM_e-3" value="1" style="text;html=1;align=center;verticalAlign=middle;resizable=0;points=[];autosize=1;strokeColor=none;fillColor=none;" vertex="1" parent="1">
          <mxGeometry x="-320" y="588" width="30" height="30" as="geometry" />
        </mxCell>
      </root>
    </mxGraphModel>
  </diagram>
  <diagram id="rpSxKHGeXmldeN7IiUdi" name="PÃ¡gina-3">
    <mxGraphModel dx="3095" dy="1988" grid="1" gridSize="10" guides="1" tooltips="1" connect="1" arrows="1" fold="1" page="1" pageScale="1" pageWidth="827" pageHeight="1169" math="0" shadow="0">
      <root>
        <mxCell id="0" />
        <mxCell id="1" parent="0" />
        <mxCell id="Q6IXXwUq7TD791B6bIoL-2" value="" style="edgeStyle=entityRelationEdgeStyle;fontSize=12;html=1;endArrow=ERoneToMany;rounded=0;exitX=0;exitY=0.5;exitDx=0;exitDy=0;entryX=0;entryY=0.5;entryDx=0;entryDy=0;" edge="1" parent="1" source="5szMj9V4czkx8NCUFPH5-2" target="mIbKD0v-5izT0t9CSRUB-18">
          <mxGeometry width="100" height="100" relative="1" as="geometry">
            <mxPoint x="-1180" y="-780" as="sourcePoint" />
            <mxPoint x="-1120" y="-410" as="targetPoint" />
          </mxGeometry>
        </mxCell>
        <mxCell id="mIbKD0v-5izT0t9CSRUB-14" value="Usuario" style="shape=table;startSize=32;container=1;collapsible=1;childLayout=tableLayout;fixedRows=1;rowLines=0;fontStyle=1;align=center;resizeLast=1;html=1;whiteSpace=wrap;" parent="1" vertex="1">
          <mxGeometry x="-1077" y="-360" width="250" height="212" as="geometry" />
        </mxCell>
        <mxCell id="mIbKD0v-5izT0t9CSRUB-15" value="" style="shape=tableRow;horizontal=0;startSize=0;swimlaneHead=0;swimlaneBody=0;fillColor=none;collapsible=0;dropTarget=0;points=[[0,0.5],[1,0.5]];portConstraint=eastwest;top=0;left=0;right=0;bottom=0;html=1;" parent="mIbKD0v-5izT0t9CSRUB-14" vertex="1">
          <mxGeometry y="32" width="250" height="30" as="geometry" />
        </mxCell>
        <mxCell id="mIbKD0v-5izT0t9CSRUB-16" value="PK" style="shape=partialRectangle;connectable=0;fillColor=none;top=0;left=0;bottom=0;right=0;fontStyle=1;overflow=hidden;html=1;whiteSpace=wrap;" parent="mIbKD0v-5izT0t9CSRUB-15" vertex="1">
          <mxGeometry width="60" height="30" as="geometry">
            <mxRectangle width="60" height="30" as="alternateBounds" />
          </mxGeometry>
        </mxCell>
        <mxCell id="mIbKD0v-5izT0t9CSRUB-17" value="Id&lt;span style=&quot;text-align: center;&quot;&gt;Usuario&lt;/span&gt;" style="shape=partialRectangle;connectable=0;fillColor=none;top=0;left=0;bottom=0;right=0;align=left;spacingLeft=6;fontStyle=5;overflow=hidden;html=1;whiteSpace=wrap;" parent="mIbKD0v-5izT0t9CSRUB-15" vertex="1">
          <mxGeometry x="60" width="190" height="30" as="geometry">
            <mxRectangle width="190" height="30" as="alternateBounds" />
          </mxGeometry>
        </mxCell>
        <mxCell id="mIbKD0v-5izT0t9CSRUB-18" value="" style="shape=tableRow;horizontal=0;startSize=0;swimlaneHead=0;swimlaneBody=0;fillColor=none;collapsible=0;dropTarget=0;points=[[0,0.5],[1,0.5]];portConstraint=eastwest;top=0;left=0;right=0;bottom=1;html=1;" parent="mIbKD0v-5izT0t9CSRUB-14" vertex="1">
          <mxGeometry y="62" width="250" height="30" as="geometry" />
        </mxCell>
        <mxCell id="mIbKD0v-5izT0t9CSRUB-19" value="FK" style="shape=partialRectangle;connectable=0;fillColor=none;top=0;left=0;bottom=0;right=0;fontStyle=1;overflow=hidden;html=1;whiteSpace=wrap;" parent="mIbKD0v-5izT0t9CSRUB-18" vertex="1">
          <mxGeometry width="60" height="30" as="geometry">
            <mxRectangle width="60" height="30" as="alternateBounds" />
          </mxGeometry>
        </mxCell>
        <mxCell id="mIbKD0v-5izT0t9CSRUB-20" value="IdEndereco" style="shape=partialRectangle;connectable=0;fillColor=none;top=0;left=0;bottom=0;right=0;align=left;spacingLeft=6;fontStyle=5;overflow=hidden;html=1;whiteSpace=wrap;" parent="mIbKD0v-5izT0t9CSRUB-18" vertex="1">
          <mxGeometry x="60" width="190" height="30" as="geometry">
            <mxRectangle width="190" height="30" as="alternateBounds" />
          </mxGeometry>
        </mxCell>
        <mxCell id="mIbKD0v-5izT0t9CSRUB-21" value="" style="shape=tableRow;horizontal=0;startSize=0;swimlaneHead=0;swimlaneBody=0;fillColor=none;collapsible=0;dropTarget=0;points=[[0,0.5],[1,0.5]];portConstraint=eastwest;top=0;left=0;right=0;bottom=0;html=1;" parent="mIbKD0v-5izT0t9CSRUB-14" vertex="1">
          <mxGeometry y="92" width="250" height="30" as="geometry" />
        </mxCell>
        <mxCell id="mIbKD0v-5izT0t9CSRUB-22" value="" style="shape=partialRectangle;connectable=0;fillColor=none;top=0;left=0;bottom=0;right=0;editable=1;overflow=hidden;html=1;whiteSpace=wrap;" parent="mIbKD0v-5izT0t9CSRUB-21" vertex="1">
          <mxGeometry width="60" height="30" as="geometry">
            <mxRectangle width="60" height="30" as="alternateBounds" />
          </mxGeometry>
        </mxCell>
        <mxCell id="mIbKD0v-5izT0t9CSRUB-23" value="CPF&amp;nbsp;" style="shape=partialRectangle;connectable=0;fillColor=none;top=0;left=0;bottom=0;right=0;align=left;spacingLeft=6;overflow=hidden;html=1;whiteSpace=wrap;" parent="mIbKD0v-5izT0t9CSRUB-21" vertex="1">
          <mxGeometry x="60" width="190" height="30" as="geometry">
            <mxRectangle width="190" height="30" as="alternateBounds" />
          </mxGeometry>
        </mxCell>
        <mxCell id="mIbKD0v-5izT0t9CSRUB-24" value="" style="shape=tableRow;horizontal=0;startSize=0;swimlaneHead=0;swimlaneBody=0;fillColor=none;collapsible=0;dropTarget=0;points=[[0,0.5],[1,0.5]];portConstraint=eastwest;top=0;left=0;right=0;bottom=0;html=1;" parent="mIbKD0v-5izT0t9CSRUB-14" vertex="1">
          <mxGeometry y="122" width="250" height="30" as="geometry" />
        </mxCell>
        <mxCell id="mIbKD0v-5izT0t9CSRUB-25" value="" style="shape=partialRectangle;connectable=0;fillColor=none;top=0;left=0;bottom=0;right=0;editable=1;overflow=hidden;html=1;whiteSpace=wrap;" parent="mIbKD0v-5izT0t9CSRUB-24" vertex="1">
          <mxGeometry width="60" height="30" as="geometry">
            <mxRectangle width="60" height="30" as="alternateBounds" />
          </mxGeometry>
        </mxCell>
        <mxCell id="mIbKD0v-5izT0t9CSRUB-26" value="Nome&amp;nbsp;" style="shape=partialRectangle;connectable=0;fillColor=none;top=0;left=0;bottom=0;right=0;align=left;spacingLeft=6;overflow=hidden;html=1;whiteSpace=wrap;" parent="mIbKD0v-5izT0t9CSRUB-24" vertex="1">
          <mxGeometry x="60" width="190" height="30" as="geometry">
            <mxRectangle width="190" height="30" as="alternateBounds" />
          </mxGeometry>
        </mxCell>
        <mxCell id="086GKehP6-PW7EId1kur-122" style="shape=tableRow;horizontal=0;startSize=0;swimlaneHead=0;swimlaneBody=0;fillColor=none;collapsible=0;dropTarget=0;points=[[0,0.5],[1,0.5]];portConstraint=eastwest;top=0;left=0;right=0;bottom=0;html=1;" parent="mIbKD0v-5izT0t9CSRUB-14" vertex="1">
          <mxGeometry y="152" width="250" height="30" as="geometry" />
        </mxCell>
        <mxCell id="086GKehP6-PW7EId1kur-123" style="shape=partialRectangle;connectable=0;fillColor=none;top=0;left=0;bottom=0;right=0;editable=1;overflow=hidden;html=1;whiteSpace=wrap;" parent="086GKehP6-PW7EId1kur-122" vertex="1">
          <mxGeometry width="60" height="30" as="geometry">
            <mxRectangle width="60" height="30" as="alternateBounds" />
          </mxGeometry>
        </mxCell>
        <mxCell id="086GKehP6-PW7EId1kur-124" value="DataNascimento" style="shape=partialRectangle;connectable=0;fillColor=none;top=0;left=0;bottom=0;right=0;align=left;spacingLeft=6;overflow=hidden;html=1;whiteSpace=wrap;" parent="086GKehP6-PW7EId1kur-122" vertex="1">
          <mxGeometry x="60" width="190" height="30" as="geometry">
            <mxRectangle width="190" height="30" as="alternateBounds" />
          </mxGeometry>
        </mxCell>
        <mxCell id="086GKehP6-PW7EId1kur-119" style="shape=tableRow;horizontal=0;startSize=0;swimlaneHead=0;swimlaneBody=0;fillColor=none;collapsible=0;dropTarget=0;points=[[0,0.5],[1,0.5]];portConstraint=eastwest;top=0;left=0;right=0;bottom=0;html=1;" parent="mIbKD0v-5izT0t9CSRUB-14" vertex="1">
          <mxGeometry y="182" width="250" height="30" as="geometry" />
        </mxCell>
        <mxCell id="086GKehP6-PW7EId1kur-120" style="shape=partialRectangle;connectable=0;fillColor=none;top=0;left=0;bottom=0;right=0;editable=1;overflow=hidden;html=1;whiteSpace=wrap;" parent="086GKehP6-PW7EId1kur-119" vertex="1">
          <mxGeometry width="60" height="30" as="geometry">
            <mxRectangle width="60" height="30" as="alternateBounds" />
          </mxGeometry>
        </mxCell>
        <mxCell id="086GKehP6-PW7EId1kur-121" value="Email&amp;nbsp;" style="shape=partialRectangle;connectable=0;fillColor=none;top=0;left=0;bottom=0;right=0;align=left;spacingLeft=6;overflow=hidden;html=1;whiteSpace=wrap;" parent="086GKehP6-PW7EId1kur-119" vertex="1">
          <mxGeometry x="60" width="190" height="30" as="geometry">
            <mxRectangle width="190" height="30" as="alternateBounds" />
          </mxGeometry>
        </mxCell>
        <mxCell id="086GKehP6-PW7EId1kur-125" value="Cliente" style="shape=table;startSize=32;container=1;collapsible=1;childLayout=tableLayout;fixedRows=1;rowLines=0;fontStyle=1;align=center;resizeLast=1;html=1;whiteSpace=wrap;" parent="1" vertex="1">
          <mxGeometry x="-1450" y="-430" width="250" height="212" as="geometry" />
        </mxCell>
        <mxCell id="086GKehP6-PW7EId1kur-126" value="" style="shape=tableRow;horizontal=0;startSize=0;swimlaneHead=0;swimlaneBody=0;fillColor=none;collapsible=0;dropTarget=0;points=[[0,0.5],[1,0.5]];portConstraint=eastwest;top=0;left=0;right=0;bottom=0;html=1;" parent="086GKehP6-PW7EId1kur-125" vertex="1">
          <mxGeometry y="32" width="250" height="30" as="geometry" />
        </mxCell>
        <mxCell id="086GKehP6-PW7EId1kur-127" value="PK" style="shape=partialRectangle;connectable=0;fillColor=none;top=0;left=0;bottom=0;right=0;fontStyle=1;overflow=hidden;html=1;whiteSpace=wrap;" parent="086GKehP6-PW7EId1kur-126" vertex="1">
          <mxGeometry width="60" height="30" as="geometry">
            <mxRectangle width="60" height="30" as="alternateBounds" />
          </mxGeometry>
        </mxCell>
        <mxCell id="086GKehP6-PW7EId1kur-128" value="Id&lt;span style=&quot;text-align: center;&quot;&gt;Cliente&lt;/span&gt;" style="shape=partialRectangle;connectable=0;fillColor=none;top=0;left=0;bottom=0;right=0;align=left;spacingLeft=6;fontStyle=5;overflow=hidden;html=1;whiteSpace=wrap;" parent="086GKehP6-PW7EId1kur-126" vertex="1">
          <mxGeometry x="60" width="190" height="30" as="geometry">
            <mxRectangle width="190" height="30" as="alternateBounds" />
          </mxGeometry>
        </mxCell>
        <mxCell id="086GKehP6-PW7EId1kur-129" value="" style="shape=tableRow;horizontal=0;startSize=0;swimlaneHead=0;swimlaneBody=0;fillColor=none;collapsible=0;dropTarget=0;points=[[0,0.5],[1,0.5]];portConstraint=eastwest;top=0;left=0;right=0;bottom=1;html=1;" parent="086GKehP6-PW7EId1kur-125" vertex="1">
          <mxGeometry y="62" width="250" height="30" as="geometry" />
        </mxCell>
        <mxCell id="086GKehP6-PW7EId1kur-130" value="FK" style="shape=partialRectangle;connectable=0;fillColor=none;top=0;left=0;bottom=0;right=0;fontStyle=1;overflow=hidden;html=1;whiteSpace=wrap;" parent="086GKehP6-PW7EId1kur-129" vertex="1">
          <mxGeometry width="60" height="30" as="geometry">
            <mxRectangle width="60" height="30" as="alternateBounds" />
          </mxGeometry>
        </mxCell>
        <mxCell id="086GKehP6-PW7EId1kur-131" value="IdUsuario" style="shape=partialRectangle;connectable=0;fillColor=none;top=0;left=0;bottom=0;right=0;align=left;spacingLeft=6;fontStyle=5;overflow=hidden;html=1;whiteSpace=wrap;" parent="086GKehP6-PW7EId1kur-129" vertex="1">
          <mxGeometry x="60" width="190" height="30" as="geometry">
            <mxRectangle width="190" height="30" as="alternateBounds" />
          </mxGeometry>
        </mxCell>
        <mxCell id="086GKehP6-PW7EId1kur-132" value="" style="shape=tableRow;horizontal=0;startSize=0;swimlaneHead=0;swimlaneBody=0;fillColor=none;collapsible=0;dropTarget=0;points=[[0,0.5],[1,0.5]];portConstraint=eastwest;top=0;left=0;right=0;bottom=0;html=1;" parent="086GKehP6-PW7EId1kur-125" vertex="1">
          <mxGeometry y="92" width="250" height="30" as="geometry" />
        </mxCell>
        <mxCell id="086GKehP6-PW7EId1kur-133" value="" style="shape=partialRectangle;connectable=0;fillColor=none;top=0;left=0;bottom=0;right=0;editable=1;overflow=hidden;html=1;whiteSpace=wrap;" parent="086GKehP6-PW7EId1kur-132" vertex="1">
          <mxGeometry width="60" height="30" as="geometry">
            <mxRectangle width="60" height="30" as="alternateBounds" />
          </mxGeometry>
        </mxCell>
        <mxCell id="086GKehP6-PW7EId1kur-134" value="" style="shape=partialRectangle;connectable=0;fillColor=none;top=0;left=0;bottom=0;right=0;align=left;spacingLeft=6;overflow=hidden;html=1;whiteSpace=wrap;" parent="086GKehP6-PW7EId1kur-132" vertex="1">
          <mxGeometry x="60" width="190" height="30" as="geometry">
            <mxRectangle width="190" height="30" as="alternateBounds" />
          </mxGeometry>
        </mxCell>
        <mxCell id="086GKehP6-PW7EId1kur-135" value="" style="shape=tableRow;horizontal=0;startSize=0;swimlaneHead=0;swimlaneBody=0;fillColor=none;collapsible=0;dropTarget=0;points=[[0,0.5],[1,0.5]];portConstraint=eastwest;top=0;left=0;right=0;bottom=0;html=1;" parent="086GKehP6-PW7EId1kur-125" vertex="1">
          <mxGeometry y="122" width="250" height="30" as="geometry" />
        </mxCell>
        <mxCell id="086GKehP6-PW7EId1kur-136" value="" style="shape=partialRectangle;connectable=0;fillColor=none;top=0;left=0;bottom=0;right=0;editable=1;overflow=hidden;html=1;whiteSpace=wrap;" parent="086GKehP6-PW7EId1kur-135" vertex="1">
          <mxGeometry width="60" height="30" as="geometry">
            <mxRectangle width="60" height="30" as="alternateBounds" />
          </mxGeometry>
        </mxCell>
        <mxCell id="086GKehP6-PW7EId1kur-137" value="" style="shape=partialRectangle;connectable=0;fillColor=none;top=0;left=0;bottom=0;right=0;align=left;spacingLeft=6;overflow=hidden;html=1;whiteSpace=wrap;" parent="086GKehP6-PW7EId1kur-135" vertex="1">
          <mxGeometry x="60" width="190" height="30" as="geometry">
            <mxRectangle width="190" height="30" as="alternateBounds" />
          </mxGeometry>
        </mxCell>
        <mxCell id="086GKehP6-PW7EId1kur-138" style="shape=tableRow;horizontal=0;startSize=0;swimlaneHead=0;swimlaneBody=0;fillColor=none;collapsible=0;dropTarget=0;points=[[0,0.5],[1,0.5]];portConstraint=eastwest;top=0;left=0;right=0;bottom=0;html=1;" parent="086GKehP6-PW7EId1kur-125" vertex="1">
          <mxGeometry y="152" width="250" height="30" as="geometry" />
        </mxCell>
        <mxCell id="086GKehP6-PW7EId1kur-139" style="shape=partialRectangle;connectable=0;fillColor=none;top=0;left=0;bottom=0;right=0;editable=1;overflow=hidden;html=1;whiteSpace=wrap;" parent="086GKehP6-PW7EId1kur-138" vertex="1">
          <mxGeometry width="60" height="30" as="geometry">
            <mxRectangle width="60" height="30" as="alternateBounds" />
          </mxGeometry>
        </mxCell>
        <mxCell id="086GKehP6-PW7EId1kur-140" value="" style="shape=partialRectangle;connectable=0;fillColor=none;top=0;left=0;bottom=0;right=0;align=left;spacingLeft=6;overflow=hidden;html=1;whiteSpace=wrap;" parent="086GKehP6-PW7EId1kur-138" vertex="1">
          <mxGeometry x="60" width="190" height="30" as="geometry">
            <mxRectangle width="190" height="30" as="alternateBounds" />
          </mxGeometry>
        </mxCell>
        <mxCell id="086GKehP6-PW7EId1kur-141" style="shape=tableRow;horizontal=0;startSize=0;swimlaneHead=0;swimlaneBody=0;fillColor=none;collapsible=0;dropTarget=0;points=[[0,0.5],[1,0.5]];portConstraint=eastwest;top=0;left=0;right=0;bottom=0;html=1;" parent="086GKehP6-PW7EId1kur-125" vertex="1">
          <mxGeometry y="182" width="250" height="30" as="geometry" />
        </mxCell>
        <mxCell id="086GKehP6-PW7EId1kur-142" style="shape=partialRectangle;connectable=0;fillColor=none;top=0;left=0;bottom=0;right=0;editable=1;overflow=hidden;html=1;whiteSpace=wrap;" parent="086GKehP6-PW7EId1kur-141" vertex="1">
          <mxGeometry width="60" height="30" as="geometry">
            <mxRectangle width="60" height="30" as="alternateBounds" />
          </mxGeometry>
        </mxCell>
        <mxCell id="086GKehP6-PW7EId1kur-143" value="" style="shape=partialRectangle;connectable=0;fillColor=none;top=0;left=0;bottom=0;right=0;align=left;spacingLeft=6;overflow=hidden;html=1;whiteSpace=wrap;" parent="086GKehP6-PW7EId1kur-141" vertex="1">
          <mxGeometry x="60" width="190" height="30" as="geometry">
            <mxRectangle width="190" height="30" as="alternateBounds" />
          </mxGeometry>
        </mxCell>
        <mxCell id="086GKehP6-PW7EId1kur-144" value="Pedido" style="shape=table;startSize=32;container=1;collapsible=1;childLayout=tableLayout;fixedRows=1;rowLines=0;fontStyle=1;align=center;resizeLast=1;html=1;whiteSpace=wrap;" parent="1" vertex="1">
          <mxGeometry x="-990" y="-764" width="250" height="272" as="geometry" />
        </mxCell>
        <mxCell id="086GKehP6-PW7EId1kur-145" value="" style="shape=tableRow;horizontal=0;startSize=0;swimlaneHead=0;swimlaneBody=0;fillColor=none;collapsible=0;dropTarget=0;points=[[0,0.5],[1,0.5]];portConstraint=eastwest;top=0;left=0;right=0;bottom=0;html=1;" parent="086GKehP6-PW7EId1kur-144" vertex="1">
          <mxGeometry y="32" width="250" height="30" as="geometry" />
        </mxCell>
        <mxCell id="086GKehP6-PW7EId1kur-146" value="PK" style="shape=partialRectangle;connectable=0;fillColor=none;top=0;left=0;bottom=0;right=0;fontStyle=1;overflow=hidden;html=1;whiteSpace=wrap;" parent="086GKehP6-PW7EId1kur-145" vertex="1">
          <mxGeometry width="60" height="30" as="geometry">
            <mxRectangle width="60" height="30" as="alternateBounds" />
          </mxGeometry>
        </mxCell>
        <mxCell id="086GKehP6-PW7EId1kur-147" value="&lt;span style=&quot;text-align: center;&quot;&gt;IdPedido&lt;/span&gt;" style="shape=partialRectangle;connectable=0;fillColor=none;top=0;left=0;bottom=0;right=0;align=left;spacingLeft=6;fontStyle=5;overflow=hidden;html=1;whiteSpace=wrap;" parent="086GKehP6-PW7EId1kur-145" vertex="1">
          <mxGeometry x="60" width="190" height="30" as="geometry">
            <mxRectangle width="190" height="30" as="alternateBounds" />
          </mxGeometry>
        </mxCell>
        <mxCell id="086GKehP6-PW7EId1kur-148" value="" style="shape=tableRow;horizontal=0;startSize=0;swimlaneHead=0;swimlaneBody=0;fillColor=none;collapsible=0;dropTarget=0;points=[[0,0.5],[1,0.5]];portConstraint=eastwest;top=0;left=0;right=0;bottom=1;html=1;" parent="086GKehP6-PW7EId1kur-144" vertex="1">
          <mxGeometry y="62" width="250" height="30" as="geometry" />
        </mxCell>
        <mxCell id="086GKehP6-PW7EId1kur-149" value="FK" style="shape=partialRectangle;connectable=0;fillColor=none;top=0;left=0;bottom=0;right=0;fontStyle=1;overflow=hidden;html=1;whiteSpace=wrap;" parent="086GKehP6-PW7EId1kur-148" vertex="1">
          <mxGeometry width="60" height="30" as="geometry">
            <mxRectangle width="60" height="30" as="alternateBounds" />
          </mxGeometry>
        </mxCell>
        <mxCell id="086GKehP6-PW7EId1kur-150" value="IdCliente" style="shape=partialRectangle;connectable=0;fillColor=none;top=0;left=0;bottom=0;right=0;align=left;spacingLeft=6;fontStyle=5;overflow=hidden;html=1;whiteSpace=wrap;" parent="086GKehP6-PW7EId1kur-148" vertex="1">
          <mxGeometry x="60" width="190" height="30" as="geometry">
            <mxRectangle width="190" height="30" as="alternateBounds" />
          </mxGeometry>
        </mxCell>
        <mxCell id="086GKehP6-PW7EId1kur-175" style="shape=tableRow;horizontal=0;startSize=0;swimlaneHead=0;swimlaneBody=0;fillColor=none;collapsible=0;dropTarget=0;points=[[0,0.5],[1,0.5]];portConstraint=eastwest;top=0;left=0;right=0;bottom=1;html=1;" parent="086GKehP6-PW7EId1kur-144" vertex="1">
          <mxGeometry y="92" width="250" height="30" as="geometry" />
        </mxCell>
        <mxCell id="086GKehP6-PW7EId1kur-176" value="FK2" style="shape=partialRectangle;connectable=0;fillColor=none;top=0;left=0;bottom=0;right=0;fontStyle=1;overflow=hidden;html=1;whiteSpace=wrap;" parent="086GKehP6-PW7EId1kur-175" vertex="1">
          <mxGeometry width="60" height="30" as="geometry">
            <mxRectangle width="60" height="30" as="alternateBounds" />
          </mxGeometry>
        </mxCell>
        <mxCell id="086GKehP6-PW7EId1kur-177" value="IdEntregador" style="shape=partialRectangle;connectable=0;fillColor=none;top=0;left=0;bottom=0;right=0;align=left;spacingLeft=6;fontStyle=5;overflow=hidden;html=1;whiteSpace=wrap;" parent="086GKehP6-PW7EId1kur-175" vertex="1">
          <mxGeometry x="60" width="190" height="30" as="geometry">
            <mxRectangle width="190" height="30" as="alternateBounds" />
          </mxGeometry>
        </mxCell>
        <mxCell id="086GKehP6-PW7EId1kur-193" style="shape=tableRow;horizontal=0;startSize=0;swimlaneHead=0;swimlaneBody=0;fillColor=none;collapsible=0;dropTarget=0;points=[[0,0.5],[1,0.5]];portConstraint=eastwest;top=0;left=0;right=0;bottom=1;html=1;" parent="086GKehP6-PW7EId1kur-144" vertex="1">
          <mxGeometry y="122" width="250" height="30" as="geometry" />
        </mxCell>
        <mxCell id="086GKehP6-PW7EId1kur-194" value="FK3" style="shape=partialRectangle;connectable=0;fillColor=none;top=0;left=0;bottom=0;right=0;fontStyle=1;overflow=hidden;html=1;whiteSpace=wrap;" parent="086GKehP6-PW7EId1kur-193" vertex="1">
          <mxGeometry width="60" height="30" as="geometry">
            <mxRectangle width="60" height="30" as="alternateBounds" />
          </mxGeometry>
        </mxCell>
        <mxCell id="086GKehP6-PW7EId1kur-195" value="IdStatus" style="shape=partialRectangle;connectable=0;fillColor=none;top=0;left=0;bottom=0;right=0;align=left;spacingLeft=6;fontStyle=5;overflow=hidden;html=1;whiteSpace=wrap;" parent="086GKehP6-PW7EId1kur-193" vertex="1">
          <mxGeometry x="60" width="190" height="30" as="geometry">
            <mxRectangle width="190" height="30" as="alternateBounds" />
          </mxGeometry>
        </mxCell>
        <mxCell id="086GKehP6-PW7EId1kur-151" value="" style="shape=tableRow;horizontal=0;startSize=0;swimlaneHead=0;swimlaneBody=0;fillColor=none;collapsible=0;dropTarget=0;points=[[0,0.5],[1,0.5]];portConstraint=eastwest;top=0;left=0;right=0;bottom=0;html=1;" parent="086GKehP6-PW7EId1kur-144" vertex="1">
          <mxGeometry y="152" width="250" height="30" as="geometry" />
        </mxCell>
        <mxCell id="086GKehP6-PW7EId1kur-152" value="" style="shape=partialRectangle;connectable=0;fillColor=none;top=0;left=0;bottom=0;right=0;editable=1;overflow=hidden;html=1;whiteSpace=wrap;" parent="086GKehP6-PW7EId1kur-151" vertex="1">
          <mxGeometry width="60" height="30" as="geometry">
            <mxRectangle width="60" height="30" as="alternateBounds" />
          </mxGeometry>
        </mxCell>
        <mxCell id="086GKehP6-PW7EId1kur-153" value="" style="shape=partialRectangle;connectable=0;fillColor=none;top=0;left=0;bottom=0;right=0;align=left;spacingLeft=6;overflow=hidden;html=1;whiteSpace=wrap;" parent="086GKehP6-PW7EId1kur-151" vertex="1">
          <mxGeometry x="60" width="190" height="30" as="geometry">
            <mxRectangle width="190" height="30" as="alternateBounds" />
          </mxGeometry>
        </mxCell>
        <mxCell id="086GKehP6-PW7EId1kur-154" value="" style="shape=tableRow;horizontal=0;startSize=0;swimlaneHead=0;swimlaneBody=0;fillColor=none;collapsible=0;dropTarget=0;points=[[0,0.5],[1,0.5]];portConstraint=eastwest;top=0;left=0;right=0;bottom=0;html=1;" parent="086GKehP6-PW7EId1kur-144" vertex="1">
          <mxGeometry y="182" width="250" height="30" as="geometry" />
        </mxCell>
        <mxCell id="086GKehP6-PW7EId1kur-155" value="" style="shape=partialRectangle;connectable=0;fillColor=none;top=0;left=0;bottom=0;right=0;editable=1;overflow=hidden;html=1;whiteSpace=wrap;" parent="086GKehP6-PW7EId1kur-154" vertex="1">
          <mxGeometry width="60" height="30" as="geometry">
            <mxRectangle width="60" height="30" as="alternateBounds" />
          </mxGeometry>
        </mxCell>
        <mxCell id="086GKehP6-PW7EId1kur-156" value="" style="shape=partialRectangle;connectable=0;fillColor=none;top=0;left=0;bottom=0;right=0;align=left;spacingLeft=6;overflow=hidden;html=1;whiteSpace=wrap;" parent="086GKehP6-PW7EId1kur-154" vertex="1">
          <mxGeometry x="60" width="190" height="30" as="geometry">
            <mxRectangle width="190" height="30" as="alternateBounds" />
          </mxGeometry>
        </mxCell>
        <mxCell id="086GKehP6-PW7EId1kur-157" style="shape=tableRow;horizontal=0;startSize=0;swimlaneHead=0;swimlaneBody=0;fillColor=none;collapsible=0;dropTarget=0;points=[[0,0.5],[1,0.5]];portConstraint=eastwest;top=0;left=0;right=0;bottom=0;html=1;" parent="086GKehP6-PW7EId1kur-144" vertex="1">
          <mxGeometry y="212" width="250" height="30" as="geometry" />
        </mxCell>
        <mxCell id="086GKehP6-PW7EId1kur-158" style="shape=partialRectangle;connectable=0;fillColor=none;top=0;left=0;bottom=0;right=0;editable=1;overflow=hidden;html=1;whiteSpace=wrap;" parent="086GKehP6-PW7EId1kur-157" vertex="1">
          <mxGeometry width="60" height="30" as="geometry">
            <mxRectangle width="60" height="30" as="alternateBounds" />
          </mxGeometry>
        </mxCell>
        <mxCell id="086GKehP6-PW7EId1kur-159" value="" style="shape=partialRectangle;connectable=0;fillColor=none;top=0;left=0;bottom=0;right=0;align=left;spacingLeft=6;overflow=hidden;html=1;whiteSpace=wrap;" parent="086GKehP6-PW7EId1kur-157" vertex="1">
          <mxGeometry x="60" width="190" height="30" as="geometry">
            <mxRectangle width="190" height="30" as="alternateBounds" />
          </mxGeometry>
        </mxCell>
        <mxCell id="086GKehP6-PW7EId1kur-160" style="shape=tableRow;horizontal=0;startSize=0;swimlaneHead=0;swimlaneBody=0;fillColor=none;collapsible=0;dropTarget=0;points=[[0,0.5],[1,0.5]];portConstraint=eastwest;top=0;left=0;right=0;bottom=0;html=1;" parent="086GKehP6-PW7EId1kur-144" vertex="1">
          <mxGeometry y="242" width="250" height="30" as="geometry" />
        </mxCell>
        <mxCell id="086GKehP6-PW7EId1kur-161" style="shape=partialRectangle;connectable=0;fillColor=none;top=0;left=0;bottom=0;right=0;editable=1;overflow=hidden;html=1;whiteSpace=wrap;" parent="086GKehP6-PW7EId1kur-160" vertex="1">
          <mxGeometry width="60" height="30" as="geometry">
            <mxRectangle width="60" height="30" as="alternateBounds" />
          </mxGeometry>
        </mxCell>
        <mxCell id="086GKehP6-PW7EId1kur-162" value="" style="shape=partialRectangle;connectable=0;fillColor=none;top=0;left=0;bottom=0;right=0;align=left;spacingLeft=6;overflow=hidden;html=1;whiteSpace=wrap;" parent="086GKehP6-PW7EId1kur-160" vertex="1">
          <mxGeometry x="60" width="190" height="30" as="geometry">
            <mxRectangle width="190" height="30" as="alternateBounds" />
          </mxGeometry>
        </mxCell>
        <mxCell id="086GKehP6-PW7EId1kur-196" value="Status" style="shape=table;startSize=32;container=1;collapsible=1;childLayout=tableLayout;fixedRows=1;rowLines=0;fontStyle=1;align=center;resizeLast=1;html=1;whiteSpace=wrap;" parent="1" vertex="1">
          <mxGeometry x="-1450" y="-960" width="250" height="92" as="geometry" />
        </mxCell>
        <mxCell id="086GKehP6-PW7EId1kur-197" value="" style="shape=tableRow;horizontal=0;startSize=0;swimlaneHead=0;swimlaneBody=0;fillColor=none;collapsible=0;dropTarget=0;points=[[0,0.5],[1,0.5]];portConstraint=eastwest;top=0;left=0;right=0;bottom=0;html=1;" parent="086GKehP6-PW7EId1kur-196" vertex="1">
          <mxGeometry y="32" width="250" height="30" as="geometry" />
        </mxCell>
        <mxCell id="086GKehP6-PW7EId1kur-198" value="PK" style="shape=partialRectangle;connectable=0;fillColor=none;top=0;left=0;bottom=0;right=0;fontStyle=1;overflow=hidden;html=1;whiteSpace=wrap;" parent="086GKehP6-PW7EId1kur-197" vertex="1">
          <mxGeometry width="60" height="30" as="geometry">
            <mxRectangle width="60" height="30" as="alternateBounds" />
          </mxGeometry>
        </mxCell>
        <mxCell id="086GKehP6-PW7EId1kur-199" value="&lt;span style=&quot;text-align: center;&quot;&gt;IdStatus&lt;/span&gt;" style="shape=partialRectangle;connectable=0;fillColor=none;top=0;left=0;bottom=0;right=0;align=left;spacingLeft=6;fontStyle=5;overflow=hidden;html=1;whiteSpace=wrap;" parent="086GKehP6-PW7EId1kur-197" vertex="1">
          <mxGeometry x="60" width="190" height="30" as="geometry">
            <mxRectangle width="190" height="30" as="alternateBounds" />
          </mxGeometry>
        </mxCell>
        <mxCell id="086GKehP6-PW7EId1kur-200" value="" style="shape=tableRow;horizontal=0;startSize=0;swimlaneHead=0;swimlaneBody=0;fillColor=none;collapsible=0;dropTarget=0;points=[[0,0.5],[1,0.5]];portConstraint=eastwest;top=0;left=0;right=0;bottom=1;html=1;" parent="086GKehP6-PW7EId1kur-196" vertex="1">
          <mxGeometry y="62" width="250" height="30" as="geometry" />
        </mxCell>
        <mxCell id="086GKehP6-PW7EId1kur-201" value="" style="shape=partialRectangle;connectable=0;fillColor=none;top=0;left=0;bottom=0;right=0;fontStyle=1;overflow=hidden;html=1;whiteSpace=wrap;" parent="086GKehP6-PW7EId1kur-200" vertex="1">
          <mxGeometry width="60" height="30" as="geometry">
            <mxRectangle width="60" height="30" as="alternateBounds" />
          </mxGeometry>
        </mxCell>
        <mxCell id="086GKehP6-PW7EId1kur-202" value="" style="shape=partialRectangle;connectable=0;fillColor=none;top=0;left=0;bottom=0;right=0;align=left;spacingLeft=6;fontStyle=5;overflow=hidden;html=1;whiteSpace=wrap;" parent="086GKehP6-PW7EId1kur-200" vertex="1">
          <mxGeometry x="60" width="190" height="30" as="geometry">
            <mxRectangle width="190" height="30" as="alternateBounds" />
          </mxGeometry>
        </mxCell>
        <mxCell id="086GKehP6-PW7EId1kur-215" value="Entregador" style="shape=table;startSize=32;container=1;collapsible=1;childLayout=tableLayout;fixedRows=1;rowLines=0;fontStyle=1;align=center;resizeLast=1;html=1;whiteSpace=wrap;" parent="1" vertex="1">
          <mxGeometry x="-1450" y="-584" width="250" height="122" as="geometry" />
        </mxCell>
        <mxCell id="086GKehP6-PW7EId1kur-216" value="" style="shape=tableRow;horizontal=0;startSize=0;swimlaneHead=0;swimlaneBody=0;fillColor=none;collapsible=0;dropTarget=0;points=[[0,0.5],[1,0.5]];portConstraint=eastwest;top=0;left=0;right=0;bottom=0;html=1;" parent="086GKehP6-PW7EId1kur-215" vertex="1">
          <mxGeometry y="32" width="250" height="30" as="geometry" />
        </mxCell>
        <mxCell id="086GKehP6-PW7EId1kur-217" value="PK" style="shape=partialRectangle;connectable=0;fillColor=none;top=0;left=0;bottom=0;right=0;fontStyle=1;overflow=hidden;html=1;whiteSpace=wrap;" parent="086GKehP6-PW7EId1kur-216" vertex="1">
          <mxGeometry width="60" height="30" as="geometry">
            <mxRectangle width="60" height="30" as="alternateBounds" />
          </mxGeometry>
        </mxCell>
        <mxCell id="086GKehP6-PW7EId1kur-218" value="&lt;span style=&quot;font-weight: 400;&quot;&gt;IdEntregador&lt;/span&gt;" style="shape=partialRectangle;connectable=0;fillColor=none;top=0;left=0;bottom=0;right=0;align=left;spacingLeft=6;fontStyle=5;overflow=hidden;html=1;whiteSpace=wrap;" parent="086GKehP6-PW7EId1kur-216" vertex="1">
          <mxGeometry x="60" width="190" height="30" as="geometry">
            <mxRectangle width="190" height="30" as="alternateBounds" />
          </mxGeometry>
        </mxCell>
        <mxCell id="086GKehP6-PW7EId1kur-219" value="" style="shape=tableRow;horizontal=0;startSize=0;swimlaneHead=0;swimlaneBody=0;fillColor=none;collapsible=0;dropTarget=0;points=[[0,0.5],[1,0.5]];portConstraint=eastwest;top=0;left=0;right=0;bottom=1;html=1;" parent="086GKehP6-PW7EId1kur-215" vertex="1">
          <mxGeometry y="62" width="250" height="30" as="geometry" />
        </mxCell>
        <mxCell id="086GKehP6-PW7EId1kur-220" value="FK" style="shape=partialRectangle;connectable=0;fillColor=none;top=0;left=0;bottom=0;right=0;fontStyle=1;overflow=hidden;html=1;whiteSpace=wrap;" parent="086GKehP6-PW7EId1kur-219" vertex="1">
          <mxGeometry width="60" height="30" as="geometry">
            <mxRectangle width="60" height="30" as="alternateBounds" />
          </mxGeometry>
        </mxCell>
        <mxCell id="086GKehP6-PW7EId1kur-221" value="IdUsuario" style="shape=partialRectangle;connectable=0;fillColor=none;top=0;left=0;bottom=0;right=0;align=left;spacingLeft=6;fontStyle=5;overflow=hidden;html=1;whiteSpace=wrap;" parent="086GKehP6-PW7EId1kur-219" vertex="1">
          <mxGeometry x="60" width="190" height="30" as="geometry">
            <mxRectangle width="190" height="30" as="alternateBounds" />
          </mxGeometry>
        </mxCell>
        <mxCell id="s_SIFSN3oIuHeW3uGhd0-1" style="shape=tableRow;horizontal=0;startSize=0;swimlaneHead=0;swimlaneBody=0;fillColor=none;collapsible=0;dropTarget=0;points=[[0,0.5],[1,0.5]];portConstraint=eastwest;top=0;left=0;right=0;bottom=1;html=1;" vertex="1" parent="086GKehP6-PW7EId1kur-215">
          <mxGeometry y="92" width="250" height="30" as="geometry" />
        </mxCell>
        <mxCell id="s_SIFSN3oIuHeW3uGhd0-2" style="shape=partialRectangle;connectable=0;fillColor=none;top=0;left=0;bottom=0;right=0;fontStyle=1;overflow=hidden;html=1;whiteSpace=wrap;" vertex="1" parent="s_SIFSN3oIuHeW3uGhd0-1">
          <mxGeometry width="60" height="30" as="geometry">
            <mxRectangle width="60" height="30" as="alternateBounds" />
          </mxGeometry>
        </mxCell>
        <mxCell id="s_SIFSN3oIuHeW3uGhd0-3" value="CNH" style="shape=partialRectangle;connectable=0;fillColor=none;top=0;left=0;bottom=0;right=0;align=left;spacingLeft=6;fontStyle=5;overflow=hidden;html=1;whiteSpace=wrap;" vertex="1" parent="s_SIFSN3oIuHeW3uGhd0-1">
          <mxGeometry x="60" width="190" height="30" as="geometry">
            <mxRectangle width="190" height="30" as="alternateBounds" />
          </mxGeometry>
        </mxCell>
        <mxCell id="086GKehP6-PW7EId1kur-234" value="Avaliacao" style="shape=table;startSize=32;container=1;collapsible=1;childLayout=tableLayout;fixedRows=1;rowLines=0;fontStyle=1;align=center;resizeLast=1;html=1;whiteSpace=wrap;" parent="1" vertex="1">
          <mxGeometry x="-1450" y="-840" width="250" height="212" as="geometry" />
        </mxCell>
        <mxCell id="086GKehP6-PW7EId1kur-235" value="" style="shape=tableRow;horizontal=0;startSize=0;swimlaneHead=0;swimlaneBody=0;fillColor=none;collapsible=0;dropTarget=0;points=[[0,0.5],[1,0.5]];portConstraint=eastwest;top=0;left=0;right=0;bottom=0;html=1;" parent="086GKehP6-PW7EId1kur-234" vertex="1">
          <mxGeometry y="32" width="250" height="30" as="geometry" />
        </mxCell>
        <mxCell id="086GKehP6-PW7EId1kur-236" value="PK" style="shape=partialRectangle;connectable=0;fillColor=none;top=0;left=0;bottom=0;right=0;fontStyle=1;overflow=hidden;html=1;whiteSpace=wrap;" parent="086GKehP6-PW7EId1kur-235" vertex="1">
          <mxGeometry width="60" height="30" as="geometry">
            <mxRectangle width="60" height="30" as="alternateBounds" />
          </mxGeometry>
        </mxCell>
        <mxCell id="086GKehP6-PW7EId1kur-237" value="&lt;span style=&quot;font-weight: 400;&quot;&gt;IdAvaliacao&lt;/span&gt;" style="shape=partialRectangle;connectable=0;fillColor=none;top=0;left=0;bottom=0;right=0;align=left;spacingLeft=6;fontStyle=5;overflow=hidden;html=1;whiteSpace=wrap;" parent="086GKehP6-PW7EId1kur-235" vertex="1">
          <mxGeometry x="60" width="190" height="30" as="geometry">
            <mxRectangle width="190" height="30" as="alternateBounds" />
          </mxGeometry>
        </mxCell>
        <mxCell id="086GKehP6-PW7EId1kur-238" value="" style="shape=tableRow;horizontal=0;startSize=0;swimlaneHead=0;swimlaneBody=0;fillColor=none;collapsible=0;dropTarget=0;points=[[0,0.5],[1,0.5]];portConstraint=eastwest;top=0;left=0;right=0;bottom=1;html=1;" parent="086GKehP6-PW7EId1kur-234" vertex="1">
          <mxGeometry y="62" width="250" height="30" as="geometry" />
        </mxCell>
        <mxCell id="086GKehP6-PW7EId1kur-239" value="FK" style="shape=partialRectangle;connectable=0;fillColor=none;top=0;left=0;bottom=0;right=0;fontStyle=1;overflow=hidden;html=1;whiteSpace=wrap;" parent="086GKehP6-PW7EId1kur-238" vertex="1">
          <mxGeometry width="60" height="30" as="geometry">
            <mxRectangle width="60" height="30" as="alternateBounds" />
          </mxGeometry>
        </mxCell>
        <mxCell id="086GKehP6-PW7EId1kur-240" value="IdPedido" style="shape=partialRectangle;connectable=0;fillColor=none;top=0;left=0;bottom=0;right=0;align=left;spacingLeft=6;fontStyle=5;overflow=hidden;html=1;whiteSpace=wrap;" parent="086GKehP6-PW7EId1kur-238" vertex="1">
          <mxGeometry x="60" width="190" height="30" as="geometry">
            <mxRectangle width="190" height="30" as="alternateBounds" />
          </mxGeometry>
        </mxCell>
        <mxCell id="086GKehP6-PW7EId1kur-253" style="shape=tableRow;horizontal=0;startSize=0;swimlaneHead=0;swimlaneBody=0;fillColor=none;collapsible=0;dropTarget=0;points=[[0,0.5],[1,0.5]];portConstraint=eastwest;top=0;left=0;right=0;bottom=1;html=1;" parent="086GKehP6-PW7EId1kur-234" vertex="1">
          <mxGeometry y="92" width="250" height="30" as="geometry" />
        </mxCell>
        <mxCell id="086GKehP6-PW7EId1kur-254" value="" style="shape=partialRectangle;connectable=0;fillColor=none;top=0;left=0;bottom=0;right=0;fontStyle=1;overflow=hidden;html=1;whiteSpace=wrap;" parent="086GKehP6-PW7EId1kur-253" vertex="1">
          <mxGeometry width="60" height="30" as="geometry">
            <mxRectangle width="60" height="30" as="alternateBounds" />
          </mxGeometry>
        </mxCell>
        <mxCell id="086GKehP6-PW7EId1kur-255" value="Comentario" style="shape=partialRectangle;connectable=0;fillColor=none;top=0;left=0;bottom=0;right=0;align=left;spacingLeft=6;fontStyle=5;overflow=hidden;html=1;whiteSpace=wrap;" parent="086GKehP6-PW7EId1kur-253" vertex="1">
          <mxGeometry x="60" width="190" height="30" as="geometry">
            <mxRectangle width="190" height="30" as="alternateBounds" />
          </mxGeometry>
        </mxCell>
        <mxCell id="086GKehP6-PW7EId1kur-241" value="" style="shape=tableRow;horizontal=0;startSize=0;swimlaneHead=0;swimlaneBody=0;fillColor=none;collapsible=0;dropTarget=0;points=[[0,0.5],[1,0.5]];portConstraint=eastwest;top=0;left=0;right=0;bottom=0;html=1;" parent="086GKehP6-PW7EId1kur-234" vertex="1">
          <mxGeometry y="122" width="250" height="30" as="geometry" />
        </mxCell>
        <mxCell id="086GKehP6-PW7EId1kur-242" value="" style="shape=partialRectangle;connectable=0;fillColor=none;top=0;left=0;bottom=0;right=0;editable=1;overflow=hidden;html=1;whiteSpace=wrap;" parent="086GKehP6-PW7EId1kur-241" vertex="1">
          <mxGeometry width="60" height="30" as="geometry">
            <mxRectangle width="60" height="30" as="alternateBounds" />
          </mxGeometry>
        </mxCell>
        <mxCell id="086GKehP6-PW7EId1kur-243" value="" style="shape=partialRectangle;connectable=0;fillColor=none;top=0;left=0;bottom=0;right=0;align=left;spacingLeft=6;overflow=hidden;html=1;whiteSpace=wrap;" parent="086GKehP6-PW7EId1kur-241" vertex="1">
          <mxGeometry x="60" width="190" height="30" as="geometry">
            <mxRectangle width="190" height="30" as="alternateBounds" />
          </mxGeometry>
        </mxCell>
        <mxCell id="086GKehP6-PW7EId1kur-247" style="shape=tableRow;horizontal=0;startSize=0;swimlaneHead=0;swimlaneBody=0;fillColor=none;collapsible=0;dropTarget=0;points=[[0,0.5],[1,0.5]];portConstraint=eastwest;top=0;left=0;right=0;bottom=0;html=1;" parent="086GKehP6-PW7EId1kur-234" vertex="1">
          <mxGeometry y="152" width="250" height="30" as="geometry" />
        </mxCell>
        <mxCell id="086GKehP6-PW7EId1kur-248" value="" style="shape=partialRectangle;connectable=0;fillColor=none;top=0;left=0;bottom=0;right=0;editable=1;overflow=hidden;html=1;whiteSpace=wrap;" parent="086GKehP6-PW7EId1kur-247" vertex="1">
          <mxGeometry width="60" height="30" as="geometry">
            <mxRectangle width="60" height="30" as="alternateBounds" />
          </mxGeometry>
        </mxCell>
        <mxCell id="086GKehP6-PW7EId1kur-249" value="" style="shape=partialRectangle;connectable=0;fillColor=none;top=0;left=0;bottom=0;right=0;align=left;spacingLeft=6;overflow=hidden;html=1;whiteSpace=wrap;" parent="086GKehP6-PW7EId1kur-247" vertex="1">
          <mxGeometry x="60" width="190" height="30" as="geometry">
            <mxRectangle width="190" height="30" as="alternateBounds" />
          </mxGeometry>
        </mxCell>
        <mxCell id="086GKehP6-PW7EId1kur-250" style="shape=tableRow;horizontal=0;startSize=0;swimlaneHead=0;swimlaneBody=0;fillColor=none;collapsible=0;dropTarget=0;points=[[0,0.5],[1,0.5]];portConstraint=eastwest;top=0;left=0;right=0;bottom=0;html=1;" parent="086GKehP6-PW7EId1kur-234" vertex="1">
          <mxGeometry y="182" width="250" height="30" as="geometry" />
        </mxCell>
        <mxCell id="086GKehP6-PW7EId1kur-251" style="shape=partialRectangle;connectable=0;fillColor=none;top=0;left=0;bottom=0;right=0;editable=1;overflow=hidden;html=1;whiteSpace=wrap;" parent="086GKehP6-PW7EId1kur-250" vertex="1">
          <mxGeometry width="60" height="30" as="geometry">
            <mxRectangle width="60" height="30" as="alternateBounds" />
          </mxGeometry>
        </mxCell>
        <mxCell id="086GKehP6-PW7EId1kur-252" value="" style="shape=partialRectangle;connectable=0;fillColor=none;top=0;left=0;bottom=0;right=0;align=left;spacingLeft=6;overflow=hidden;html=1;whiteSpace=wrap;" parent="086GKehP6-PW7EId1kur-250" vertex="1">
          <mxGeometry x="60" width="190" height="30" as="geometry">
            <mxRectangle width="190" height="30" as="alternateBounds" />
          </mxGeometry>
        </mxCell>
        <mxCell id="086GKehP6-PW7EId1kur-259" value="Pagamento" style="shape=table;startSize=32;container=1;collapsible=1;childLayout=tableLayout;fixedRows=1;rowLines=0;fontStyle=1;align=center;resizeLast=1;html=1;whiteSpace=wrap;" parent="1" vertex="1">
          <mxGeometry x="-680" y="-440" width="250" height="212" as="geometry" />
        </mxCell>
        <mxCell id="086GKehP6-PW7EId1kur-260" value="" style="shape=tableRow;horizontal=0;startSize=0;swimlaneHead=0;swimlaneBody=0;fillColor=none;collapsible=0;dropTarget=0;points=[[0,0.5],[1,0.5]];portConstraint=eastwest;top=0;left=0;right=0;bottom=0;html=1;" parent="086GKehP6-PW7EId1kur-259" vertex="1">
          <mxGeometry y="32" width="250" height="30" as="geometry" />
        </mxCell>
        <mxCell id="086GKehP6-PW7EId1kur-261" value="PK" style="shape=partialRectangle;connectable=0;fillColor=none;top=0;left=0;bottom=0;right=0;fontStyle=1;overflow=hidden;html=1;whiteSpace=wrap;" parent="086GKehP6-PW7EId1kur-260" vertex="1">
          <mxGeometry width="60" height="30" as="geometry">
            <mxRectangle width="60" height="30" as="alternateBounds" />
          </mxGeometry>
        </mxCell>
        <mxCell id="086GKehP6-PW7EId1kur-262" value="Id&lt;span style=&quot;text-align: center;&quot;&gt;Pagamento&lt;/span&gt;" style="shape=partialRectangle;connectable=0;fillColor=none;top=0;left=0;bottom=0;right=0;align=left;spacingLeft=6;fontStyle=5;overflow=hidden;html=1;whiteSpace=wrap;" parent="086GKehP6-PW7EId1kur-260" vertex="1">
          <mxGeometry x="60" width="190" height="30" as="geometry">
            <mxRectangle width="190" height="30" as="alternateBounds" />
          </mxGeometry>
        </mxCell>
        <mxCell id="086GKehP6-PW7EId1kur-263" value="" style="shape=tableRow;horizontal=0;startSize=0;swimlaneHead=0;swimlaneBody=0;fillColor=none;collapsible=0;dropTarget=0;points=[[0,0.5],[1,0.5]];portConstraint=eastwest;top=0;left=0;right=0;bottom=1;html=1;" parent="086GKehP6-PW7EId1kur-259" vertex="1">
          <mxGeometry y="62" width="250" height="30" as="geometry" />
        </mxCell>
        <mxCell id="086GKehP6-PW7EId1kur-264" value="FK" style="shape=partialRectangle;connectable=0;fillColor=none;top=0;left=0;bottom=0;right=0;fontStyle=1;overflow=hidden;html=1;whiteSpace=wrap;" parent="086GKehP6-PW7EId1kur-263" vertex="1">
          <mxGeometry width="60" height="30" as="geometry">
            <mxRectangle width="60" height="30" as="alternateBounds" />
          </mxGeometry>
        </mxCell>
        <mxCell id="086GKehP6-PW7EId1kur-265" value="IdPedido" style="shape=partialRectangle;connectable=0;fillColor=none;top=0;left=0;bottom=0;right=0;align=left;spacingLeft=6;fontStyle=5;overflow=hidden;html=1;whiteSpace=wrap;" parent="086GKehP6-PW7EId1kur-263" vertex="1">
          <mxGeometry x="60" width="190" height="30" as="geometry">
            <mxRectangle width="190" height="30" as="alternateBounds" />
          </mxGeometry>
        </mxCell>
        <mxCell id="086GKehP6-PW7EId1kur-266" value="" style="shape=tableRow;horizontal=0;startSize=0;swimlaneHead=0;swimlaneBody=0;fillColor=none;collapsible=0;dropTarget=0;points=[[0,0.5],[1,0.5]];portConstraint=eastwest;top=0;left=0;right=0;bottom=0;html=1;" parent="086GKehP6-PW7EId1kur-259" vertex="1">
          <mxGeometry y="92" width="250" height="30" as="geometry" />
        </mxCell>
        <mxCell id="086GKehP6-PW7EId1kur-267" value="" style="shape=partialRectangle;connectable=0;fillColor=none;top=0;left=0;bottom=0;right=0;editable=1;overflow=hidden;html=1;whiteSpace=wrap;" parent="086GKehP6-PW7EId1kur-266" vertex="1">
          <mxGeometry width="60" height="30" as="geometry">
            <mxRectangle width="60" height="30" as="alternateBounds" />
          </mxGeometry>
        </mxCell>
        <mxCell id="086GKehP6-PW7EId1kur-268" value="" style="shape=partialRectangle;connectable=0;fillColor=none;top=0;left=0;bottom=0;right=0;align=left;spacingLeft=6;overflow=hidden;html=1;whiteSpace=wrap;" parent="086GKehP6-PW7EId1kur-266" vertex="1">
          <mxGeometry x="60" width="190" height="30" as="geometry">
            <mxRectangle width="190" height="30" as="alternateBounds" />
          </mxGeometry>
        </mxCell>
        <mxCell id="086GKehP6-PW7EId1kur-269" value="" style="shape=tableRow;horizontal=0;startSize=0;swimlaneHead=0;swimlaneBody=0;fillColor=none;collapsible=0;dropTarget=0;points=[[0,0.5],[1,0.5]];portConstraint=eastwest;top=0;left=0;right=0;bottom=0;html=1;" parent="086GKehP6-PW7EId1kur-259" vertex="1">
          <mxGeometry y="122" width="250" height="30" as="geometry" />
        </mxCell>
        <mxCell id="086GKehP6-PW7EId1kur-270" value="" style="shape=partialRectangle;connectable=0;fillColor=none;top=0;left=0;bottom=0;right=0;editable=1;overflow=hidden;html=1;whiteSpace=wrap;" parent="086GKehP6-PW7EId1kur-269" vertex="1">
          <mxGeometry width="60" height="30" as="geometry">
            <mxRectangle width="60" height="30" as="alternateBounds" />
          </mxGeometry>
        </mxCell>
        <mxCell id="086GKehP6-PW7EId1kur-271" value="" style="shape=partialRectangle;connectable=0;fillColor=none;top=0;left=0;bottom=0;right=0;align=left;spacingLeft=6;overflow=hidden;html=1;whiteSpace=wrap;" parent="086GKehP6-PW7EId1kur-269" vertex="1">
          <mxGeometry x="60" width="190" height="30" as="geometry">
            <mxRectangle width="190" height="30" as="alternateBounds" />
          </mxGeometry>
        </mxCell>
        <mxCell id="086GKehP6-PW7EId1kur-272" style="shape=tableRow;horizontal=0;startSize=0;swimlaneHead=0;swimlaneBody=0;fillColor=none;collapsible=0;dropTarget=0;points=[[0,0.5],[1,0.5]];portConstraint=eastwest;top=0;left=0;right=0;bottom=0;html=1;" parent="086GKehP6-PW7EId1kur-259" vertex="1">
          <mxGeometry y="152" width="250" height="30" as="geometry" />
        </mxCell>
        <mxCell id="086GKehP6-PW7EId1kur-273" style="shape=partialRectangle;connectable=0;fillColor=none;top=0;left=0;bottom=0;right=0;editable=1;overflow=hidden;html=1;whiteSpace=wrap;" parent="086GKehP6-PW7EId1kur-272" vertex="1">
          <mxGeometry width="60" height="30" as="geometry">
            <mxRectangle width="60" height="30" as="alternateBounds" />
          </mxGeometry>
        </mxCell>
        <mxCell id="086GKehP6-PW7EId1kur-274" value="" style="shape=partialRectangle;connectable=0;fillColor=none;top=0;left=0;bottom=0;right=0;align=left;spacingLeft=6;overflow=hidden;html=1;whiteSpace=wrap;" parent="086GKehP6-PW7EId1kur-272" vertex="1">
          <mxGeometry x="60" width="190" height="30" as="geometry">
            <mxRectangle width="190" height="30" as="alternateBounds" />
          </mxGeometry>
        </mxCell>
        <mxCell id="086GKehP6-PW7EId1kur-275" style="shape=tableRow;horizontal=0;startSize=0;swimlaneHead=0;swimlaneBody=0;fillColor=none;collapsible=0;dropTarget=0;points=[[0,0.5],[1,0.5]];portConstraint=eastwest;top=0;left=0;right=0;bottom=0;html=1;" parent="086GKehP6-PW7EId1kur-259" vertex="1">
          <mxGeometry y="182" width="250" height="30" as="geometry" />
        </mxCell>
        <mxCell id="086GKehP6-PW7EId1kur-276" style="shape=partialRectangle;connectable=0;fillColor=none;top=0;left=0;bottom=0;right=0;editable=1;overflow=hidden;html=1;whiteSpace=wrap;" parent="086GKehP6-PW7EId1kur-275" vertex="1">
          <mxGeometry width="60" height="30" as="geometry">
            <mxRectangle width="60" height="30" as="alternateBounds" />
          </mxGeometry>
        </mxCell>
        <mxCell id="086GKehP6-PW7EId1kur-277" value="" style="shape=partialRectangle;connectable=0;fillColor=none;top=0;left=0;bottom=0;right=0;align=left;spacingLeft=6;overflow=hidden;html=1;whiteSpace=wrap;" parent="086GKehP6-PW7EId1kur-275" vertex="1">
          <mxGeometry x="60" width="190" height="30" as="geometry">
            <mxRectangle width="190" height="30" as="alternateBounds" />
          </mxGeometry>
        </mxCell>
        <mxCell id="086GKehP6-PW7EId1kur-278" value="Restaurante&amp;nbsp;" style="shape=table;startSize=32;container=1;collapsible=1;childLayout=tableLayout;fixedRows=1;rowLines=0;fontStyle=1;align=center;resizeLast=1;html=1;whiteSpace=wrap;" parent="1" vertex="1">
          <mxGeometry x="-664" y="-1110" width="250" height="242" as="geometry" />
        </mxCell>
        <mxCell id="086GKehP6-PW7EId1kur-279" value="" style="shape=tableRow;horizontal=0;startSize=0;swimlaneHead=0;swimlaneBody=0;fillColor=none;collapsible=0;dropTarget=0;points=[[0,0.5],[1,0.5]];portConstraint=eastwest;top=0;left=0;right=0;bottom=0;html=1;" parent="086GKehP6-PW7EId1kur-278" vertex="1">
          <mxGeometry y="32" width="250" height="30" as="geometry" />
        </mxCell>
        <mxCell id="086GKehP6-PW7EId1kur-280" value="PK" style="shape=partialRectangle;connectable=0;fillColor=none;top=0;left=0;bottom=0;right=0;fontStyle=1;overflow=hidden;html=1;whiteSpace=wrap;" parent="086GKehP6-PW7EId1kur-279" vertex="1">
          <mxGeometry width="60" height="30" as="geometry">
            <mxRectangle width="60" height="30" as="alternateBounds" />
          </mxGeometry>
        </mxCell>
        <mxCell id="086GKehP6-PW7EId1kur-281" value="Id - unique" style="shape=partialRectangle;connectable=0;fillColor=none;top=0;left=0;bottom=0;right=0;align=left;spacingLeft=6;fontStyle=5;overflow=hidden;html=1;whiteSpace=wrap;" parent="086GKehP6-PW7EId1kur-279" vertex="1">
          <mxGeometry x="60" width="190" height="30" as="geometry">
            <mxRectangle width="190" height="30" as="alternateBounds" />
          </mxGeometry>
        </mxCell>
        <mxCell id="086GKehP6-PW7EId1kur-282" value="" style="shape=tableRow;horizontal=0;startSize=0;swimlaneHead=0;swimlaneBody=0;fillColor=none;collapsible=0;dropTarget=0;points=[[0,0.5],[1,0.5]];portConstraint=eastwest;top=0;left=0;right=0;bottom=1;html=1;" parent="086GKehP6-PW7EId1kur-278" vertex="1">
          <mxGeometry y="62" width="250" height="30" as="geometry" />
        </mxCell>
        <mxCell id="086GKehP6-PW7EId1kur-283" value="FK" style="shape=partialRectangle;connectable=0;fillColor=none;top=0;left=0;bottom=0;right=0;fontStyle=1;overflow=hidden;html=1;whiteSpace=wrap;" parent="086GKehP6-PW7EId1kur-282" vertex="1">
          <mxGeometry width="60" height="30" as="geometry">
            <mxRectangle width="60" height="30" as="alternateBounds" />
          </mxGeometry>
        </mxCell>
        <mxCell id="086GKehP6-PW7EId1kur-284" value="IdCardapio - unique" style="shape=partialRectangle;connectable=0;fillColor=none;top=0;left=0;bottom=0;right=0;align=left;spacingLeft=6;fontStyle=5;overflow=hidden;html=1;whiteSpace=wrap;" parent="086GKehP6-PW7EId1kur-282" vertex="1">
          <mxGeometry x="60" width="190" height="30" as="geometry">
            <mxRectangle width="190" height="30" as="alternateBounds" />
          </mxGeometry>
        </mxCell>
        <mxCell id="086GKehP6-PW7EId1kur-297" style="shape=tableRow;horizontal=0;startSize=0;swimlaneHead=0;swimlaneBody=0;fillColor=none;collapsible=0;dropTarget=0;points=[[0,0.5],[1,0.5]];portConstraint=eastwest;top=0;left=0;right=0;bottom=1;html=1;" parent="086GKehP6-PW7EId1kur-278" vertex="1">
          <mxGeometry y="92" width="250" height="30" as="geometry" />
        </mxCell>
        <mxCell id="086GKehP6-PW7EId1kur-298" value="FK2" style="shape=partialRectangle;connectable=0;fillColor=none;top=0;left=0;bottom=0;right=0;fontStyle=1;overflow=hidden;html=1;whiteSpace=wrap;" parent="086GKehP6-PW7EId1kur-297" vertex="1">
          <mxGeometry width="60" height="30" as="geometry">
            <mxRectangle width="60" height="30" as="alternateBounds" />
          </mxGeometry>
        </mxCell>
        <mxCell id="086GKehP6-PW7EId1kur-299" value="IdEndereco" style="shape=partialRectangle;connectable=0;fillColor=none;top=0;left=0;bottom=0;right=0;align=left;spacingLeft=6;fontStyle=5;overflow=hidden;html=1;whiteSpace=wrap;" parent="086GKehP6-PW7EId1kur-297" vertex="1">
          <mxGeometry x="60" width="190" height="30" as="geometry">
            <mxRectangle width="190" height="30" as="alternateBounds" />
          </mxGeometry>
        </mxCell>
        <mxCell id="086GKehP6-PW7EId1kur-285" value="" style="shape=tableRow;horizontal=0;startSize=0;swimlaneHead=0;swimlaneBody=0;fillColor=none;collapsible=0;dropTarget=0;points=[[0,0.5],[1,0.5]];portConstraint=eastwest;top=0;left=0;right=0;bottom=0;html=1;" parent="086GKehP6-PW7EId1kur-278" vertex="1">
          <mxGeometry y="122" width="250" height="30" as="geometry" />
        </mxCell>
        <mxCell id="086GKehP6-PW7EId1kur-286" value="" style="shape=partialRectangle;connectable=0;fillColor=none;top=0;left=0;bottom=0;right=0;editable=1;overflow=hidden;html=1;whiteSpace=wrap;" parent="086GKehP6-PW7EId1kur-285" vertex="1">
          <mxGeometry width="60" height="30" as="geometry">
            <mxRectangle width="60" height="30" as="alternateBounds" />
          </mxGeometry>
        </mxCell>
        <mxCell id="086GKehP6-PW7EId1kur-287" value="CNPJ : char(100)" style="shape=partialRectangle;connectable=0;fillColor=none;top=0;left=0;bottom=0;right=0;align=left;spacingLeft=6;overflow=hidden;html=1;whiteSpace=wrap;" parent="086GKehP6-PW7EId1kur-285" vertex="1">
          <mxGeometry x="60" width="190" height="30" as="geometry">
            <mxRectangle width="190" height="30" as="alternateBounds" />
          </mxGeometry>
        </mxCell>
        <mxCell id="086GKehP6-PW7EId1kur-288" value="" style="shape=tableRow;horizontal=0;startSize=0;swimlaneHead=0;swimlaneBody=0;fillColor=none;collapsible=0;dropTarget=0;points=[[0,0.5],[1,0.5]];portConstraint=eastwest;top=0;left=0;right=0;bottom=0;html=1;" parent="086GKehP6-PW7EId1kur-278" vertex="1">
          <mxGeometry y="152" width="250" height="30" as="geometry" />
        </mxCell>
        <mxCell id="086GKehP6-PW7EId1kur-289" value="" style="shape=partialRectangle;connectable=0;fillColor=none;top=0;left=0;bottom=0;right=0;editable=1;overflow=hidden;html=1;whiteSpace=wrap;" parent="086GKehP6-PW7EId1kur-288" vertex="1">
          <mxGeometry width="60" height="30" as="geometry">
            <mxRectangle width="60" height="30" as="alternateBounds" />
          </mxGeometry>
        </mxCell>
        <mxCell id="086GKehP6-PW7EId1kur-290" value="Nome : char(100)" style="shape=partialRectangle;connectable=0;fillColor=none;top=0;left=0;bottom=0;right=0;align=left;spacingLeft=6;overflow=hidden;html=1;whiteSpace=wrap;" parent="086GKehP6-PW7EId1kur-288" vertex="1">
          <mxGeometry x="60" width="190" height="30" as="geometry">
            <mxRectangle width="190" height="30" as="alternateBounds" />
          </mxGeometry>
        </mxCell>
        <mxCell id="086GKehP6-PW7EId1kur-291" style="shape=tableRow;horizontal=0;startSize=0;swimlaneHead=0;swimlaneBody=0;fillColor=none;collapsible=0;dropTarget=0;points=[[0,0.5],[1,0.5]];portConstraint=eastwest;top=0;left=0;right=0;bottom=0;html=1;" parent="086GKehP6-PW7EId1kur-278" vertex="1">
          <mxGeometry y="182" width="250" height="30" as="geometry" />
        </mxCell>
        <mxCell id="086GKehP6-PW7EId1kur-292" style="shape=partialRectangle;connectable=0;fillColor=none;top=0;left=0;bottom=0;right=0;editable=1;overflow=hidden;html=1;whiteSpace=wrap;" parent="086GKehP6-PW7EId1kur-291" vertex="1">
          <mxGeometry width="60" height="30" as="geometry">
            <mxRectangle width="60" height="30" as="alternateBounds" />
          </mxGeometry>
        </mxCell>
        <mxCell id="086GKehP6-PW7EId1kur-293" value="" style="shape=partialRectangle;connectable=0;fillColor=none;top=0;left=0;bottom=0;right=0;align=left;spacingLeft=6;overflow=hidden;html=1;whiteSpace=wrap;" parent="086GKehP6-PW7EId1kur-291" vertex="1">
          <mxGeometry x="60" width="190" height="30" as="geometry">
            <mxRectangle width="190" height="30" as="alternateBounds" />
          </mxGeometry>
        </mxCell>
        <mxCell id="086GKehP6-PW7EId1kur-294" style="shape=tableRow;horizontal=0;startSize=0;swimlaneHead=0;swimlaneBody=0;fillColor=none;collapsible=0;dropTarget=0;points=[[0,0.5],[1,0.5]];portConstraint=eastwest;top=0;left=0;right=0;bottom=0;html=1;" parent="086GKehP6-PW7EId1kur-278" vertex="1">
          <mxGeometry y="212" width="250" height="30" as="geometry" />
        </mxCell>
        <mxCell id="086GKehP6-PW7EId1kur-295" style="shape=partialRectangle;connectable=0;fillColor=none;top=0;left=0;bottom=0;right=0;editable=1;overflow=hidden;html=1;whiteSpace=wrap;" parent="086GKehP6-PW7EId1kur-294" vertex="1">
          <mxGeometry width="60" height="30" as="geometry">
            <mxRectangle width="60" height="30" as="alternateBounds" />
          </mxGeometry>
        </mxCell>
        <mxCell id="086GKehP6-PW7EId1kur-296" value="" style="shape=partialRectangle;connectable=0;fillColor=none;top=0;left=0;bottom=0;right=0;align=left;spacingLeft=6;overflow=hidden;html=1;whiteSpace=wrap;" parent="086GKehP6-PW7EId1kur-294" vertex="1">
          <mxGeometry x="60" width="190" height="30" as="geometry">
            <mxRectangle width="190" height="30" as="alternateBounds" />
          </mxGeometry>
        </mxCell>
        <mxCell id="086GKehP6-PW7EId1kur-300" value="Cardapio" style="shape=table;startSize=32;container=1;collapsible=1;childLayout=tableLayout;fixedRows=1;rowLines=0;fontStyle=1;align=center;resizeLast=1;html=1;whiteSpace=wrap;" parent="1" vertex="1">
          <mxGeometry x="-320" y="-1110" width="250" height="212" as="geometry" />
        </mxCell>
        <mxCell id="086GKehP6-PW7EId1kur-301" value="" style="shape=tableRow;horizontal=0;startSize=0;swimlaneHead=0;swimlaneBody=0;fillColor=none;collapsible=0;dropTarget=0;points=[[0,0.5],[1,0.5]];portConstraint=eastwest;top=0;left=0;right=0;bottom=0;html=1;" parent="086GKehP6-PW7EId1kur-300" vertex="1">
          <mxGeometry y="32" width="250" height="30" as="geometry" />
        </mxCell>
        <mxCell id="086GKehP6-PW7EId1kur-302" value="PK" style="shape=partialRectangle;connectable=0;fillColor=none;top=0;left=0;bottom=0;right=0;fontStyle=1;overflow=hidden;html=1;whiteSpace=wrap;" parent="086GKehP6-PW7EId1kur-301" vertex="1">
          <mxGeometry width="60" height="30" as="geometry">
            <mxRectangle width="60" height="30" as="alternateBounds" />
          </mxGeometry>
        </mxCell>
        <mxCell id="086GKehP6-PW7EId1kur-303" value="Id - unique" style="shape=partialRectangle;connectable=0;fillColor=none;top=0;left=0;bottom=0;right=0;align=left;spacingLeft=6;fontStyle=5;overflow=hidden;html=1;whiteSpace=wrap;" parent="086GKehP6-PW7EId1kur-301" vertex="1">
          <mxGeometry x="60" width="190" height="30" as="geometry">
            <mxRectangle width="190" height="30" as="alternateBounds" />
          </mxGeometry>
        </mxCell>
        <mxCell id="086GKehP6-PW7EId1kur-304" value="" style="shape=tableRow;horizontal=0;startSize=0;swimlaneHead=0;swimlaneBody=0;fillColor=none;collapsible=0;dropTarget=0;points=[[0,0.5],[1,0.5]];portConstraint=eastwest;top=0;left=0;right=0;bottom=1;html=1;" parent="086GKehP6-PW7EId1kur-300" vertex="1">
          <mxGeometry y="62" width="250" height="30" as="geometry" />
        </mxCell>
        <mxCell id="086GKehP6-PW7EId1kur-305" value="FK" style="shape=partialRectangle;connectable=0;fillColor=none;top=0;left=0;bottom=0;right=0;fontStyle=1;overflow=hidden;html=1;whiteSpace=wrap;" parent="086GKehP6-PW7EId1kur-304" vertex="1">
          <mxGeometry width="60" height="30" as="geometry">
            <mxRectangle width="60" height="30" as="alternateBounds" />
          </mxGeometry>
        </mxCell>
        <mxCell id="086GKehP6-PW7EId1kur-306" value="IdRestaurante" style="shape=partialRectangle;connectable=0;fillColor=none;top=0;left=0;bottom=0;right=0;align=left;spacingLeft=6;fontStyle=5;overflow=hidden;html=1;whiteSpace=wrap;" parent="086GKehP6-PW7EId1kur-304" vertex="1">
          <mxGeometry x="60" width="190" height="30" as="geometry">
            <mxRectangle width="190" height="30" as="alternateBounds" />
          </mxGeometry>
        </mxCell>
        <mxCell id="086GKehP6-PW7EId1kur-307" value="" style="shape=tableRow;horizontal=0;startSize=0;swimlaneHead=0;swimlaneBody=0;fillColor=none;collapsible=0;dropTarget=0;points=[[0,0.5],[1,0.5]];portConstraint=eastwest;top=0;left=0;right=0;bottom=0;html=1;" parent="086GKehP6-PW7EId1kur-300" vertex="1">
          <mxGeometry y="92" width="250" height="30" as="geometry" />
        </mxCell>
        <mxCell id="086GKehP6-PW7EId1kur-308" value="" style="shape=partialRectangle;connectable=0;fillColor=none;top=0;left=0;bottom=0;right=0;editable=1;overflow=hidden;html=1;whiteSpace=wrap;" parent="086GKehP6-PW7EId1kur-307" vertex="1">
          <mxGeometry width="60" height="30" as="geometry">
            <mxRectangle width="60" height="30" as="alternateBounds" />
          </mxGeometry>
        </mxCell>
        <mxCell id="086GKehP6-PW7EId1kur-309" value="" style="shape=partialRectangle;connectable=0;fillColor=none;top=0;left=0;bottom=0;right=0;align=left;spacingLeft=6;overflow=hidden;html=1;whiteSpace=wrap;" parent="086GKehP6-PW7EId1kur-307" vertex="1">
          <mxGeometry x="60" width="190" height="30" as="geometry">
            <mxRectangle width="190" height="30" as="alternateBounds" />
          </mxGeometry>
        </mxCell>
        <mxCell id="086GKehP6-PW7EId1kur-310" value="" style="shape=tableRow;horizontal=0;startSize=0;swimlaneHead=0;swimlaneBody=0;fillColor=none;collapsible=0;dropTarget=0;points=[[0,0.5],[1,0.5]];portConstraint=eastwest;top=0;left=0;right=0;bottom=0;html=1;" parent="086GKehP6-PW7EId1kur-300" vertex="1">
          <mxGeometry y="122" width="250" height="30" as="geometry" />
        </mxCell>
        <mxCell id="086GKehP6-PW7EId1kur-311" value="" style="shape=partialRectangle;connectable=0;fillColor=none;top=0;left=0;bottom=0;right=0;editable=1;overflow=hidden;html=1;whiteSpace=wrap;" parent="086GKehP6-PW7EId1kur-310" vertex="1">
          <mxGeometry width="60" height="30" as="geometry">
            <mxRectangle width="60" height="30" as="alternateBounds" />
          </mxGeometry>
        </mxCell>
        <mxCell id="086GKehP6-PW7EId1kur-312" value="" style="shape=partialRectangle;connectable=0;fillColor=none;top=0;left=0;bottom=0;right=0;align=left;spacingLeft=6;overflow=hidden;html=1;whiteSpace=wrap;" parent="086GKehP6-PW7EId1kur-310" vertex="1">
          <mxGeometry x="60" width="190" height="30" as="geometry">
            <mxRectangle width="190" height="30" as="alternateBounds" />
          </mxGeometry>
        </mxCell>
        <mxCell id="086GKehP6-PW7EId1kur-313" style="shape=tableRow;horizontal=0;startSize=0;swimlaneHead=0;swimlaneBody=0;fillColor=none;collapsible=0;dropTarget=0;points=[[0,0.5],[1,0.5]];portConstraint=eastwest;top=0;left=0;right=0;bottom=0;html=1;" parent="086GKehP6-PW7EId1kur-300" vertex="1">
          <mxGeometry y="152" width="250" height="30" as="geometry" />
        </mxCell>
        <mxCell id="086GKehP6-PW7EId1kur-314" style="shape=partialRectangle;connectable=0;fillColor=none;top=0;left=0;bottom=0;right=0;editable=1;overflow=hidden;html=1;whiteSpace=wrap;" parent="086GKehP6-PW7EId1kur-313" vertex="1">
          <mxGeometry width="60" height="30" as="geometry">
            <mxRectangle width="60" height="30" as="alternateBounds" />
          </mxGeometry>
        </mxCell>
        <mxCell id="086GKehP6-PW7EId1kur-315" value="" style="shape=partialRectangle;connectable=0;fillColor=none;top=0;left=0;bottom=0;right=0;align=left;spacingLeft=6;overflow=hidden;html=1;whiteSpace=wrap;" parent="086GKehP6-PW7EId1kur-313" vertex="1">
          <mxGeometry x="60" width="190" height="30" as="geometry">
            <mxRectangle width="190" height="30" as="alternateBounds" />
          </mxGeometry>
        </mxCell>
        <mxCell id="086GKehP6-PW7EId1kur-316" style="shape=tableRow;horizontal=0;startSize=0;swimlaneHead=0;swimlaneBody=0;fillColor=none;collapsible=0;dropTarget=0;points=[[0,0.5],[1,0.5]];portConstraint=eastwest;top=0;left=0;right=0;bottom=0;html=1;" parent="086GKehP6-PW7EId1kur-300" vertex="1">
          <mxGeometry y="182" width="250" height="30" as="geometry" />
        </mxCell>
        <mxCell id="086GKehP6-PW7EId1kur-317" style="shape=partialRectangle;connectable=0;fillColor=none;top=0;left=0;bottom=0;right=0;editable=1;overflow=hidden;html=1;whiteSpace=wrap;" parent="086GKehP6-PW7EId1kur-316" vertex="1">
          <mxGeometry width="60" height="30" as="geometry">
            <mxRectangle width="60" height="30" as="alternateBounds" />
          </mxGeometry>
        </mxCell>
        <mxCell id="086GKehP6-PW7EId1kur-318" value="" style="shape=partialRectangle;connectable=0;fillColor=none;top=0;left=0;bottom=0;right=0;align=left;spacingLeft=6;overflow=hidden;html=1;whiteSpace=wrap;" parent="086GKehP6-PW7EId1kur-316" vertex="1">
          <mxGeometry x="60" width="190" height="30" as="geometry">
            <mxRectangle width="190" height="30" as="alternateBounds" />
          </mxGeometry>
        </mxCell>
        <mxCell id="086GKehP6-PW7EId1kur-319" value="Produto" style="shape=table;startSize=32;container=1;collapsible=1;childLayout=tableLayout;fixedRows=1;rowLines=0;fontStyle=1;align=center;resizeLast=1;html=1;whiteSpace=wrap;" parent="1" vertex="1">
          <mxGeometry x="-320" y="-766" width="250" height="182" as="geometry" />
        </mxCell>
        <mxCell id="086GKehP6-PW7EId1kur-320" value="" style="shape=tableRow;horizontal=0;startSize=0;swimlaneHead=0;swimlaneBody=0;fillColor=none;collapsible=0;dropTarget=0;points=[[0,0.5],[1,0.5]];portConstraint=eastwest;top=0;left=0;right=0;bottom=0;html=1;" parent="086GKehP6-PW7EId1kur-319" vertex="1">
          <mxGeometry y="32" width="250" height="30" as="geometry" />
        </mxCell>
        <mxCell id="086GKehP6-PW7EId1kur-321" value="PK" style="shape=partialRectangle;connectable=0;fillColor=none;top=0;left=0;bottom=0;right=0;fontStyle=1;overflow=hidden;html=1;whiteSpace=wrap;" parent="086GKehP6-PW7EId1kur-320" vertex="1">
          <mxGeometry width="60" height="30" as="geometry">
            <mxRectangle width="60" height="30" as="alternateBounds" />
          </mxGeometry>
        </mxCell>
        <mxCell id="086GKehP6-PW7EId1kur-322" value="Id&lt;span style=&quot;text-align: center;&quot;&gt;Produto&lt;/span&gt;" style="shape=partialRectangle;connectable=0;fillColor=none;top=0;left=0;bottom=0;right=0;align=left;spacingLeft=6;fontStyle=5;overflow=hidden;html=1;whiteSpace=wrap;" parent="086GKehP6-PW7EId1kur-320" vertex="1">
          <mxGeometry x="60" width="190" height="30" as="geometry">
            <mxRectangle width="190" height="30" as="alternateBounds" />
          </mxGeometry>
        </mxCell>
        <mxCell id="086GKehP6-PW7EId1kur-323" value="" style="shape=tableRow;horizontal=0;startSize=0;swimlaneHead=0;swimlaneBody=0;fillColor=none;collapsible=0;dropTarget=0;points=[[0,0.5],[1,0.5]];portConstraint=eastwest;top=0;left=0;right=0;bottom=1;html=1;" parent="086GKehP6-PW7EId1kur-319" vertex="1">
          <mxGeometry y="62" width="250" height="30" as="geometry" />
        </mxCell>
        <mxCell id="086GKehP6-PW7EId1kur-324" value="FK" style="shape=partialRectangle;connectable=0;fillColor=none;top=0;left=0;bottom=0;right=0;fontStyle=1;overflow=hidden;html=1;whiteSpace=wrap;" parent="086GKehP6-PW7EId1kur-323" vertex="1">
          <mxGeometry width="60" height="30" as="geometry">
            <mxRectangle width="60" height="30" as="alternateBounds" />
          </mxGeometry>
        </mxCell>
        <mxCell id="086GKehP6-PW7EId1kur-325" value="IdCardapio" style="shape=partialRectangle;connectable=0;fillColor=none;top=0;left=0;bottom=0;right=0;align=left;spacingLeft=6;fontStyle=5;overflow=hidden;html=1;whiteSpace=wrap;" parent="086GKehP6-PW7EId1kur-323" vertex="1">
          <mxGeometry x="60" width="190" height="30" as="geometry">
            <mxRectangle width="190" height="30" as="alternateBounds" />
          </mxGeometry>
        </mxCell>
        <mxCell id="086GKehP6-PW7EId1kur-326" value="" style="shape=tableRow;horizontal=0;startSize=0;swimlaneHead=0;swimlaneBody=0;fillColor=none;collapsible=0;dropTarget=0;points=[[0,0.5],[1,0.5]];portConstraint=eastwest;top=0;left=0;right=0;bottom=0;html=1;" parent="086GKehP6-PW7EId1kur-319" vertex="1">
          <mxGeometry y="92" width="250" height="30" as="geometry" />
        </mxCell>
        <mxCell id="086GKehP6-PW7EId1kur-327" value="" style="shape=partialRectangle;connectable=0;fillColor=none;top=0;left=0;bottom=0;right=0;editable=1;overflow=hidden;html=1;whiteSpace=wrap;" parent="086GKehP6-PW7EId1kur-326" vertex="1">
          <mxGeometry width="60" height="30" as="geometry">
            <mxRectangle width="60" height="30" as="alternateBounds" />
          </mxGeometry>
        </mxCell>
        <mxCell id="086GKehP6-PW7EId1kur-328" value="NomeProduto&amp;nbsp;&lt;span style=&quot;white-space: pre;&quot;&gt;&#x9;&lt;/span&gt;&lt;span style=&quot;white-space: pre;&quot;&gt;&#x9;&lt;/span&gt;" style="shape=partialRectangle;connectable=0;fillColor=none;top=0;left=0;bottom=0;right=0;align=left;spacingLeft=6;overflow=hidden;html=1;whiteSpace=wrap;" parent="086GKehP6-PW7EId1kur-326" vertex="1">
          <mxGeometry x="60" width="190" height="30" as="geometry">
            <mxRectangle width="190" height="30" as="alternateBounds" />
          </mxGeometry>
        </mxCell>
        <mxCell id="086GKehP6-PW7EId1kur-329" value="" style="shape=tableRow;horizontal=0;startSize=0;swimlaneHead=0;swimlaneBody=0;fillColor=none;collapsible=0;dropTarget=0;points=[[0,0.5],[1,0.5]];portConstraint=eastwest;top=0;left=0;right=0;bottom=0;html=1;" parent="086GKehP6-PW7EId1kur-319" vertex="1">
          <mxGeometry y="122" width="250" height="30" as="geometry" />
        </mxCell>
        <mxCell id="086GKehP6-PW7EId1kur-330" value="" style="shape=partialRectangle;connectable=0;fillColor=none;top=0;left=0;bottom=0;right=0;editable=1;overflow=hidden;html=1;whiteSpace=wrap;" parent="086GKehP6-PW7EId1kur-329" vertex="1">
          <mxGeometry width="60" height="30" as="geometry">
            <mxRectangle width="60" height="30" as="alternateBounds" />
          </mxGeometry>
        </mxCell>
        <mxCell id="086GKehP6-PW7EId1kur-331" value="PrecoProduto&amp;nbsp;" style="shape=partialRectangle;connectable=0;fillColor=none;top=0;left=0;bottom=0;right=0;align=left;spacingLeft=6;overflow=hidden;html=1;whiteSpace=wrap;" parent="086GKehP6-PW7EId1kur-329" vertex="1">
          <mxGeometry x="60" width="190" height="30" as="geometry">
            <mxRectangle width="190" height="30" as="alternateBounds" />
          </mxGeometry>
        </mxCell>
        <mxCell id="086GKehP6-PW7EId1kur-332" style="shape=tableRow;horizontal=0;startSize=0;swimlaneHead=0;swimlaneBody=0;fillColor=none;collapsible=0;dropTarget=0;points=[[0,0.5],[1,0.5]];portConstraint=eastwest;top=0;left=0;right=0;bottom=0;html=1;" parent="086GKehP6-PW7EId1kur-319" vertex="1">
          <mxGeometry y="152" width="250" height="30" as="geometry" />
        </mxCell>
        <mxCell id="086GKehP6-PW7EId1kur-333" style="shape=partialRectangle;connectable=0;fillColor=none;top=0;left=0;bottom=0;right=0;editable=1;overflow=hidden;html=1;whiteSpace=wrap;" parent="086GKehP6-PW7EId1kur-332" vertex="1">
          <mxGeometry width="60" height="30" as="geometry">
            <mxRectangle width="60" height="30" as="alternateBounds" />
          </mxGeometry>
        </mxCell>
        <mxCell id="086GKehP6-PW7EId1kur-334" value="DescricaoProduto" style="shape=partialRectangle;connectable=0;fillColor=none;top=0;left=0;bottom=0;right=0;align=left;spacingLeft=6;overflow=hidden;html=1;whiteSpace=wrap;" parent="086GKehP6-PW7EId1kur-332" vertex="1">
          <mxGeometry x="60" width="190" height="30" as="geometry">
            <mxRectangle width="190" height="30" as="alternateBounds" />
          </mxGeometry>
        </mxCell>
        <mxCell id="WktfARl-VfnzYItLgyHF-1" value="PedidoProduto" style="shape=table;startSize=32;container=1;collapsible=1;childLayout=tableLayout;fixedRows=1;rowLines=0;fontStyle=1;align=center;resizeLast=1;html=1;whiteSpace=wrap;" vertex="1" parent="1">
          <mxGeometry x="-650" y="-766" width="250" height="242" as="geometry" />
        </mxCell>
        <mxCell id="WktfARl-VfnzYItLgyHF-2" value="" style="shape=tableRow;horizontal=0;startSize=0;swimlaneHead=0;swimlaneBody=0;fillColor=none;collapsible=0;dropTarget=0;points=[[0,0.5],[1,0.5]];portConstraint=eastwest;top=0;left=0;right=0;bottom=0;html=1;" vertex="1" parent="WktfARl-VfnzYItLgyHF-1">
          <mxGeometry y="32" width="250" height="30" as="geometry" />
        </mxCell>
        <mxCell id="WktfARl-VfnzYItLgyHF-3" value="PK" style="shape=partialRectangle;connectable=0;fillColor=none;top=0;left=0;bottom=0;right=0;fontStyle=1;overflow=hidden;html=1;whiteSpace=wrap;" vertex="1" parent="WktfARl-VfnzYItLgyHF-2">
          <mxGeometry width="60" height="30" as="geometry">
            <mxRectangle width="60" height="30" as="alternateBounds" />
          </mxGeometry>
        </mxCell>
        <mxCell id="WktfARl-VfnzYItLgyHF-4" value="&lt;span style=&quot;text-align: center;&quot;&gt;Id&lt;/span&gt;&lt;span style=&quot;text-align: center;&quot;&gt;PedidosProduto&lt;/span&gt;" style="shape=partialRectangle;connectable=0;fillColor=none;top=0;left=0;bottom=0;right=0;align=left;spacingLeft=6;fontStyle=5;overflow=hidden;html=1;whiteSpace=wrap;" vertex="1" parent="WktfARl-VfnzYItLgyHF-2">
          <mxGeometry x="60" width="190" height="30" as="geometry">
            <mxRectangle width="190" height="30" as="alternateBounds" />
          </mxGeometry>
        </mxCell>
        <mxCell id="WktfARl-VfnzYItLgyHF-5" value="" style="shape=tableRow;horizontal=0;startSize=0;swimlaneHead=0;swimlaneBody=0;fillColor=none;collapsible=0;dropTarget=0;points=[[0,0.5],[1,0.5]];portConstraint=eastwest;top=0;left=0;right=0;bottom=1;html=1;" vertex="1" parent="WktfARl-VfnzYItLgyHF-1">
          <mxGeometry y="62" width="250" height="30" as="geometry" />
        </mxCell>
        <mxCell id="WktfARl-VfnzYItLgyHF-6" value="FK" style="shape=partialRectangle;connectable=0;fillColor=none;top=0;left=0;bottom=0;right=0;fontStyle=1;overflow=hidden;html=1;whiteSpace=wrap;" vertex="1" parent="WktfARl-VfnzYItLgyHF-5">
          <mxGeometry width="60" height="30" as="geometry">
            <mxRectangle width="60" height="30" as="alternateBounds" />
          </mxGeometry>
        </mxCell>
        <mxCell id="WktfARl-VfnzYItLgyHF-7" value="IdProduto" style="shape=partialRectangle;connectable=0;fillColor=none;top=0;left=0;bottom=0;right=0;align=left;spacingLeft=6;fontStyle=5;overflow=hidden;html=1;whiteSpace=wrap;" vertex="1" parent="WktfARl-VfnzYItLgyHF-5">
          <mxGeometry x="60" width="190" height="30" as="geometry">
            <mxRectangle width="190" height="30" as="alternateBounds" />
          </mxGeometry>
        </mxCell>
        <mxCell id="WktfARl-VfnzYItLgyHF-8" style="shape=tableRow;horizontal=0;startSize=0;swimlaneHead=0;swimlaneBody=0;fillColor=none;collapsible=0;dropTarget=0;points=[[0,0.5],[1,0.5]];portConstraint=eastwest;top=0;left=0;right=0;bottom=1;html=1;" vertex="1" parent="WktfARl-VfnzYItLgyHF-1">
          <mxGeometry y="92" width="250" height="30" as="geometry" />
        </mxCell>
        <mxCell id="WktfARl-VfnzYItLgyHF-9" value="FK2" style="shape=partialRectangle;connectable=0;fillColor=none;top=0;left=0;bottom=0;right=0;fontStyle=1;overflow=hidden;html=1;whiteSpace=wrap;" vertex="1" parent="WktfARl-VfnzYItLgyHF-8">
          <mxGeometry width="60" height="30" as="geometry">
            <mxRectangle width="60" height="30" as="alternateBounds" />
          </mxGeometry>
        </mxCell>
        <mxCell id="WktfARl-VfnzYItLgyHF-10" value="IdPedido" style="shape=partialRectangle;connectable=0;fillColor=none;top=0;left=0;bottom=0;right=0;align=left;spacingLeft=6;fontStyle=5;overflow=hidden;html=1;whiteSpace=wrap;" vertex="1" parent="WktfARl-VfnzYItLgyHF-8">
          <mxGeometry x="60" width="190" height="30" as="geometry">
            <mxRectangle width="190" height="30" as="alternateBounds" />
          </mxGeometry>
        </mxCell>
        <mxCell id="WktfARl-VfnzYItLgyHF-17" value="" style="shape=tableRow;horizontal=0;startSize=0;swimlaneHead=0;swimlaneBody=0;fillColor=none;collapsible=0;dropTarget=0;points=[[0,0.5],[1,0.5]];portConstraint=eastwest;top=0;left=0;right=0;bottom=0;html=1;" vertex="1" parent="WktfARl-VfnzYItLgyHF-1">
          <mxGeometry y="122" width="250" height="30" as="geometry" />
        </mxCell>
        <mxCell id="WktfARl-VfnzYItLgyHF-18" value="" style="shape=partialRectangle;connectable=0;fillColor=none;top=0;left=0;bottom=0;right=0;editable=1;overflow=hidden;html=1;whiteSpace=wrap;" vertex="1" parent="WktfARl-VfnzYItLgyHF-17">
          <mxGeometry width="60" height="30" as="geometry">
            <mxRectangle width="60" height="30" as="alternateBounds" />
          </mxGeometry>
        </mxCell>
        <mxCell id="WktfARl-VfnzYItLgyHF-19" value="" style="shape=partialRectangle;connectable=0;fillColor=none;top=0;left=0;bottom=0;right=0;align=left;spacingLeft=6;overflow=hidden;html=1;whiteSpace=wrap;" vertex="1" parent="WktfARl-VfnzYItLgyHF-17">
          <mxGeometry x="60" width="190" height="30" as="geometry">
            <mxRectangle width="190" height="30" as="alternateBounds" />
          </mxGeometry>
        </mxCell>
        <mxCell id="WktfARl-VfnzYItLgyHF-20" value="" style="shape=tableRow;horizontal=0;startSize=0;swimlaneHead=0;swimlaneBody=0;fillColor=none;collapsible=0;dropTarget=0;points=[[0,0.5],[1,0.5]];portConstraint=eastwest;top=0;left=0;right=0;bottom=0;html=1;" vertex="1" parent="WktfARl-VfnzYItLgyHF-1">
          <mxGeometry y="152" width="250" height="30" as="geometry" />
        </mxCell>
        <mxCell id="WktfARl-VfnzYItLgyHF-21" value="" style="shape=partialRectangle;connectable=0;fillColor=none;top=0;left=0;bottom=0;right=0;editable=1;overflow=hidden;html=1;whiteSpace=wrap;" vertex="1" parent="WktfARl-VfnzYItLgyHF-20">
          <mxGeometry width="60" height="30" as="geometry">
            <mxRectangle width="60" height="30" as="alternateBounds" />
          </mxGeometry>
        </mxCell>
        <mxCell id="WktfARl-VfnzYItLgyHF-22" value="" style="shape=partialRectangle;connectable=0;fillColor=none;top=0;left=0;bottom=0;right=0;align=left;spacingLeft=6;overflow=hidden;html=1;whiteSpace=wrap;" vertex="1" parent="WktfARl-VfnzYItLgyHF-20">
          <mxGeometry x="60" width="190" height="30" as="geometry">
            <mxRectangle width="190" height="30" as="alternateBounds" />
          </mxGeometry>
        </mxCell>
        <mxCell id="WktfARl-VfnzYItLgyHF-23" style="shape=tableRow;horizontal=0;startSize=0;swimlaneHead=0;swimlaneBody=0;fillColor=none;collapsible=0;dropTarget=0;points=[[0,0.5],[1,0.5]];portConstraint=eastwest;top=0;left=0;right=0;bottom=0;html=1;" vertex="1" parent="WktfARl-VfnzYItLgyHF-1">
          <mxGeometry y="182" width="250" height="30" as="geometry" />
        </mxCell>
        <mxCell id="WktfARl-VfnzYItLgyHF-24" style="shape=partialRectangle;connectable=0;fillColor=none;top=0;left=0;bottom=0;right=0;editable=1;overflow=hidden;html=1;whiteSpace=wrap;" vertex="1" parent="WktfARl-VfnzYItLgyHF-23">
          <mxGeometry width="60" height="30" as="geometry">
            <mxRectangle width="60" height="30" as="alternateBounds" />
          </mxGeometry>
        </mxCell>
        <mxCell id="WktfARl-VfnzYItLgyHF-25" value="" style="shape=partialRectangle;connectable=0;fillColor=none;top=0;left=0;bottom=0;right=0;align=left;spacingLeft=6;overflow=hidden;html=1;whiteSpace=wrap;" vertex="1" parent="WktfARl-VfnzYItLgyHF-23">
          <mxGeometry x="60" width="190" height="30" as="geometry">
            <mxRectangle width="190" height="30" as="alternateBounds" />
          </mxGeometry>
        </mxCell>
        <mxCell id="WktfARl-VfnzYItLgyHF-26" style="shape=tableRow;horizontal=0;startSize=0;swimlaneHead=0;swimlaneBody=0;fillColor=none;collapsible=0;dropTarget=0;points=[[0,0.5],[1,0.5]];portConstraint=eastwest;top=0;left=0;right=0;bottom=0;html=1;" vertex="1" parent="WktfARl-VfnzYItLgyHF-1">
          <mxGeometry y="212" width="250" height="30" as="geometry" />
        </mxCell>
        <mxCell id="WktfARl-VfnzYItLgyHF-27" style="shape=partialRectangle;connectable=0;fillColor=none;top=0;left=0;bottom=0;right=0;editable=1;overflow=hidden;html=1;whiteSpace=wrap;" vertex="1" parent="WktfARl-VfnzYItLgyHF-26">
          <mxGeometry width="60" height="30" as="geometry">
            <mxRectangle width="60" height="30" as="alternateBounds" />
          </mxGeometry>
        </mxCell>
        <mxCell id="WktfARl-VfnzYItLgyHF-28" value="" style="shape=partialRectangle;connectable=0;fillColor=none;top=0;left=0;bottom=0;right=0;align=left;spacingLeft=6;overflow=hidden;html=1;whiteSpace=wrap;" vertex="1" parent="WktfARl-VfnzYItLgyHF-26">
          <mxGeometry x="60" width="190" height="30" as="geometry">
            <mxRectangle width="190" height="30" as="alternateBounds" />
          </mxGeometry>
        </mxCell>
        <mxCell id="5szMj9V4czkx8NCUFPH5-1" value="Endereco" style="shape=table;startSize=32;container=1;collapsible=1;childLayout=tableLayout;fixedRows=1;rowLines=0;fontStyle=1;align=center;resizeLast=1;html=1;whiteSpace=wrap;" vertex="1" parent="1">
          <mxGeometry x="-1030" y="-950" width="250" height="122" as="geometry" />
        </mxCell>
        <mxCell id="5szMj9V4czkx8NCUFPH5-2" value="" style="shape=tableRow;horizontal=0;startSize=0;swimlaneHead=0;swimlaneBody=0;fillColor=none;collapsible=0;dropTarget=0;points=[[0,0.5],[1,0.5]];portConstraint=eastwest;top=0;left=0;right=0;bottom=0;html=1;" vertex="1" parent="5szMj9V4czkx8NCUFPH5-1">
          <mxGeometry y="32" width="250" height="30" as="geometry" />
        </mxCell>
        <mxCell id="5szMj9V4czkx8NCUFPH5-3" value="PK" style="shape=partialRectangle;connectable=0;fillColor=none;top=0;left=0;bottom=0;right=0;fontStyle=1;overflow=hidden;html=1;whiteSpace=wrap;" vertex="1" parent="5szMj9V4czkx8NCUFPH5-2">
          <mxGeometry width="60" height="30" as="geometry">
            <mxRectangle width="60" height="30" as="alternateBounds" />
          </mxGeometry>
        </mxCell>
        <mxCell id="5szMj9V4czkx8NCUFPH5-4" value="Id&lt;span style=&quot;text-align: center;&quot;&gt;Endereco&lt;/span&gt;" style="shape=partialRectangle;connectable=0;fillColor=none;top=0;left=0;bottom=0;right=0;align=left;spacingLeft=6;fontStyle=5;overflow=hidden;html=1;whiteSpace=wrap;" vertex="1" parent="5szMj9V4czkx8NCUFPH5-2">
          <mxGeometry x="60" width="190" height="30" as="geometry">
            <mxRectangle width="190" height="30" as="alternateBounds" />
          </mxGeometry>
        </mxCell>
        <mxCell id="5szMj9V4czkx8NCUFPH5-8" value="" style="shape=tableRow;horizontal=0;startSize=0;swimlaneHead=0;swimlaneBody=0;fillColor=none;collapsible=0;dropTarget=0;points=[[0,0.5],[1,0.5]];portConstraint=eastwest;top=0;left=0;right=0;bottom=0;html=1;" vertex="1" parent="5szMj9V4czkx8NCUFPH5-1">
          <mxGeometry y="62" width="250" height="30" as="geometry" />
        </mxCell>
        <mxCell id="5szMj9V4czkx8NCUFPH5-9" value="" style="shape=partialRectangle;connectable=0;fillColor=none;top=0;left=0;bottom=0;right=0;editable=1;overflow=hidden;html=1;whiteSpace=wrap;" vertex="1" parent="5szMj9V4czkx8NCUFPH5-8">
          <mxGeometry width="60" height="30" as="geometry">
            <mxRectangle width="60" height="30" as="alternateBounds" />
          </mxGeometry>
        </mxCell>
        <mxCell id="5szMj9V4czkx8NCUFPH5-10" value="CEP" style="shape=partialRectangle;connectable=0;fillColor=none;top=0;left=0;bottom=0;right=0;align=left;spacingLeft=6;overflow=hidden;html=1;whiteSpace=wrap;" vertex="1" parent="5szMj9V4czkx8NCUFPH5-8">
          <mxGeometry x="60" width="190" height="30" as="geometry">
            <mxRectangle width="190" height="30" as="alternateBounds" />
          </mxGeometry>
        </mxCell>
        <mxCell id="5szMj9V4czkx8NCUFPH5-11" value="" style="shape=tableRow;horizontal=0;startSize=0;swimlaneHead=0;swimlaneBody=0;fillColor=none;collapsible=0;dropTarget=0;points=[[0,0.5],[1,0.5]];portConstraint=eastwest;top=0;left=0;right=0;bottom=0;html=1;" vertex="1" parent="5szMj9V4czkx8NCUFPH5-1">
          <mxGeometry y="92" width="250" height="30" as="geometry" />
        </mxCell>
        <mxCell id="5szMj9V4czkx8NCUFPH5-12" value="" style="shape=partialRectangle;connectable=0;fillColor=none;top=0;left=0;bottom=0;right=0;editable=1;overflow=hidden;html=1;whiteSpace=wrap;" vertex="1" parent="5szMj9V4czkx8NCUFPH5-11">
          <mxGeometry width="60" height="30" as="geometry">
            <mxRectangle width="60" height="30" as="alternateBounds" />
          </mxGeometry>
        </mxCell>
        <mxCell id="5szMj9V4czkx8NCUFPH5-13" value="Numero" style="shape=partialRectangle;connectable=0;fillColor=none;top=0;left=0;bottom=0;right=0;align=left;spacingLeft=6;overflow=hidden;html=1;whiteSpace=wrap;" vertex="1" parent="5szMj9V4czkx8NCUFPH5-11">
          <mxGeometry x="60" width="190" height="30" as="geometry">
            <mxRectangle width="190" height="30" as="alternateBounds" />
          </mxGeometry>
        </mxCell>
        <mxCell id="Q6IXXwUq7TD791B6bIoL-3" value="" style="edgeStyle=entityRelationEdgeStyle;fontSize=12;html=1;endArrow=ERmandOne;startArrow=ERmandOne;rounded=0;exitX=1;exitY=0.5;exitDx=0;exitDy=0;entryX=0;entryY=0.5;entryDx=0;entryDy=0;" edge="1" parent="1" source="5szMj9V4czkx8NCUFPH5-2" target="086GKehP6-PW7EId1kur-297">
          <mxGeometry width="100" height="100" relative="1" as="geometry">
            <mxPoint x="-700" y="-883" as="sourcePoint" />
            <mxPoint x="-670" y="-1010" as="targetPoint" />
          </mxGeometry>
        </mxCell>
        <mxCell id="Q6IXXwUq7TD791B6bIoL-4" value="" style="edgeStyle=entityRelationEdgeStyle;fontSize=12;html=1;endArrow=ERmandOne;startArrow=ERmandOne;rounded=0;exitX=1;exitY=0.5;exitDx=0;exitDy=0;entryX=0;entryY=0.5;entryDx=0;entryDy=0;" edge="1" parent="1" source="086GKehP6-PW7EId1kur-279" target="086GKehP6-PW7EId1kur-304">
          <mxGeometry width="100" height="100" relative="1" as="geometry">
            <mxPoint x="-383" y="-939" as="sourcePoint" />
            <mxPoint x="-267" y="-1039" as="targetPoint" />
          </mxGeometry>
        </mxCell>
        <mxCell id="Q6IXXwUq7TD791B6bIoL-5" value="" style="edgeStyle=entityRelationEdgeStyle;fontSize=12;html=1;endArrow=ERoneToMany;rounded=0;exitX=1;exitY=0.5;exitDx=0;exitDy=0;entryX=1;entryY=0.5;entryDx=0;entryDy=0;" edge="1" parent="1" source="086GKehP6-PW7EId1kur-301" target="086GKehP6-PW7EId1kur-323">
          <mxGeometry width="100" height="100" relative="1" as="geometry">
            <mxPoint x="90" y="-868" as="sourcePoint" />
            <mxPoint x="70" y="-248" as="targetPoint" />
          </mxGeometry>
        </mxCell>
        <mxCell id="Q6IXXwUq7TD791B6bIoL-6" value="" style="edgeStyle=entityRelationEdgeStyle;fontSize=12;html=1;endArrow=ERoneToMany;rounded=0;exitX=1;exitY=0.5;exitDx=0;exitDy=0;entryX=0;entryY=0.5;entryDx=0;entryDy=0;" edge="1" parent="1" source="WktfARl-VfnzYItLgyHF-5" target="086GKehP6-PW7EId1kur-320">
          <mxGeometry width="100" height="100" relative="1" as="geometry">
            <mxPoint x="-250" y="-511" as="sourcePoint" />
            <mxPoint x="-250" y="-137" as="targetPoint" />
          </mxGeometry>
        </mxCell>
        <mxCell id="Q6IXXwUq7TD791B6bIoL-7" value="" style="edgeStyle=entityRelationEdgeStyle;fontSize=12;html=1;endArrow=ERoneToMany;rounded=0;exitX=1;exitY=0.5;exitDx=0;exitDy=0;entryX=0;entryY=0.5;entryDx=0;entryDy=0;" edge="1" parent="1" source="WktfARl-VfnzYItLgyHF-5" target="086GKehP6-PW7EId1kur-320">
          <mxGeometry width="100" height="100" relative="1" as="geometry">
            <mxPoint x="-400" y="-689" as="sourcePoint" />
            <mxPoint x="-320" y="-719" as="targetPoint" />
            <Array as="points">
              <mxPoint x="-720" y="-660" />
            </Array>
          </mxGeometry>
        </mxCell>
        <mxCell id="Q6IXXwUq7TD791B6bIoL-8" value="" style="edgeStyle=entityRelationEdgeStyle;fontSize=12;html=1;endArrow=ERoneToMany;rounded=0;exitX=1;exitY=0.5;exitDx=0;exitDy=0;entryX=0;entryY=0.5;entryDx=0;entryDy=0;" edge="1" parent="1" source="WktfARl-VfnzYItLgyHF-5" target="086GKehP6-PW7EId1kur-320">
          <mxGeometry width="100" height="100" relative="1" as="geometry">
            <mxPoint x="-400" y="-689" as="sourcePoint" />
            <mxPoint x="-320" y="-719" as="targetPoint" />
            <Array as="points">
              <mxPoint x="-720" y="-660" />
              <mxPoint x="-690" y="-700" />
            </Array>
          </mxGeometry>
        </mxCell>
        <mxCell id="Q6IXXwUq7TD791B6bIoL-9" value="" style="edgeStyle=entityRelationEdgeStyle;fontSize=12;html=1;endArrow=ERoneToMany;rounded=0;exitX=1;exitY=0.5;exitDx=0;exitDy=0;entryX=0;entryY=0.5;entryDx=0;entryDy=0;" edge="1" parent="1" source="WktfARl-VfnzYItLgyHF-5" target="086GKehP6-PW7EId1kur-320">
          <mxGeometry width="100" height="100" relative="1" as="geometry">
            <mxPoint x="-400" y="-689" as="sourcePoint" />
            <mxPoint x="-320" y="-719" as="targetPoint" />
            <Array as="points">
              <mxPoint x="-720" y="-660" />
              <mxPoint x="-690" y="-630" />
              <mxPoint x="-690" y="-700" />
            </Array>
          </mxGeometry>
        </mxCell>
        <mxCell id="Q6IXXwUq7TD791B6bIoL-10" value="" style="edgeStyle=entityRelationEdgeStyle;fontSize=12;html=1;endArrow=ERoneToMany;rounded=0;exitX=0;exitY=0.5;exitDx=0;exitDy=0;entryX=1;entryY=0.5;entryDx=0;entryDy=0;" edge="1" parent="1" source="WktfARl-VfnzYItLgyHF-8" target="086GKehP6-PW7EId1kur-145">
          <mxGeometry width="100" height="100" relative="1" as="geometry">
            <mxPoint x="-710" y="-790" as="sourcePoint" />
            <mxPoint x="-630" y="-820" as="targetPoint" />
            <Array as="points">
              <mxPoint x="-1030" y="-761" />
              <mxPoint x="-1000" y="-731" />
              <mxPoint x="-1000" y="-801" />
            </Array>
          </mxGeometry>
        </mxCell>
        <mxCell id="Q6IXXwUq7TD791B6bIoL-11" value="" style="edgeStyle=entityRelationEdgeStyle;fontSize=12;html=1;endArrow=ERmandOne;startArrow=ERmandOne;rounded=0;exitX=0;exitY=0.5;exitDx=0;exitDy=0;entryX=1;entryY=0.5;entryDx=0;entryDy=0;" edge="1" parent="1" source="086GKehP6-PW7EId1kur-260" target="086GKehP6-PW7EId1kur-145">
          <mxGeometry width="100" height="100" relative="1" as="geometry">
            <mxPoint x="-670" y="-360" as="sourcePoint" />
            <mxPoint x="-554" y="-460" as="targetPoint" />
          </mxGeometry>
        </mxCell>
        <mxCell id="Q6IXXwUq7TD791B6bIoL-12" value="" style="edgeStyle=entityRelationEdgeStyle;fontSize=12;html=1;endArrow=ERmandOne;startArrow=ERmandOne;rounded=0;exitX=0;exitY=0.5;exitDx=0;exitDy=0;entryX=1;entryY=0.5;entryDx=0;entryDy=0;" edge="1" parent="1" source="mIbKD0v-5izT0t9CSRUB-15" target="086GKehP6-PW7EId1kur-219">
          <mxGeometry width="100" height="100" relative="1" as="geometry">
            <mxPoint x="-1080" y="-416" as="sourcePoint" />
            <mxPoint x="-1140" y="-740" as="targetPoint" />
          </mxGeometry>
        </mxCell>
        <mxCell id="Q6IXXwUq7TD791B6bIoL-13" value="" style="edgeStyle=entityRelationEdgeStyle;fontSize=12;html=1;endArrow=ERmandOne;startArrow=ERmandOne;rounded=0;exitX=0;exitY=0.5;exitDx=0;exitDy=0;entryX=1;entryY=0.5;entryDx=0;entryDy=0;" edge="1" parent="1" source="mIbKD0v-5izT0t9CSRUB-15" target="086GKehP6-PW7EId1kur-129">
          <mxGeometry width="100" height="100" relative="1" as="geometry">
            <mxPoint x="-1040" y="-166" as="sourcePoint" />
            <mxPoint x="-1190" y="-360" as="targetPoint" />
          </mxGeometry>
        </mxCell>
        <mxCell id="Q6IXXwUq7TD791B6bIoL-14" value="" style="edgeStyle=entityRelationEdgeStyle;fontSize=12;html=1;endArrow=ERmandOne;startArrow=ERmandOne;rounded=0;exitX=0;exitY=0.5;exitDx=0;exitDy=0;entryX=1;entryY=0.5;entryDx=0;entryDy=0;" edge="1" parent="1" source="086GKehP6-PW7EId1kur-145" target="086GKehP6-PW7EId1kur-238">
          <mxGeometry width="100" height="100" relative="1" as="geometry">
            <mxPoint x="-997" y="-536" as="sourcePoint" />
            <mxPoint x="-1120" y="-730" as="targetPoint" />
          </mxGeometry>
        </mxCell>
        <mxCell id="Q6IXXwUq7TD791B6bIoL-15" value="" style="edgeStyle=entityRelationEdgeStyle;fontSize=12;html=1;endArrow=ERoneToMany;rounded=0;exitX=1;exitY=0.5;exitDx=0;exitDy=0;entryX=0;entryY=0.5;entryDx=0;entryDy=0;" edge="1" parent="1" source="086GKehP6-PW7EId1kur-197" target="086GKehP6-PW7EId1kur-193">
          <mxGeometry width="100" height="100" relative="1" as="geometry">
            <mxPoint x="-1113" y="-903" as="sourcePoint" />
            <mxPoint x="-1160" y="-283" as="targetPoint" />
          </mxGeometry>
        </mxCell>
        <mxCell id="Q6IXXwUq7TD791B6bIoL-16" value="" style="edgeStyle=entityRelationEdgeStyle;fontSize=12;html=1;endArrow=ERoneToMany;rounded=0;entryX=0;entryY=0.5;entryDx=0;entryDy=0;exitX=1;exitY=0.5;exitDx=0;exitDy=0;" edge="1" parent="1" source="086GKehP6-PW7EId1kur-216" target="086GKehP6-PW7EId1kur-175">
          <mxGeometry width="100" height="100" relative="1" as="geometry">
            <mxPoint x="-1077" y="-670" as="sourcePoint" />
            <mxPoint x="-1124" y="-50" as="targetPoint" />
          </mxGeometry>
        </mxCell>
        <mxCell id="Q6IXXwUq7TD791B6bIoL-17" value="" style="edgeStyle=entityRelationEdgeStyle;fontSize=12;html=1;endArrow=ERoneToMany;rounded=0;entryX=0;entryY=0.5;entryDx=0;entryDy=0;exitX=1;exitY=0.5;exitDx=0;exitDy=0;" edge="1" parent="1" source="086GKehP6-PW7EId1kur-126" target="086GKehP6-PW7EId1kur-148">
          <mxGeometry width="100" height="100" relative="1" as="geometry">
            <mxPoint x="-1150" y="-440" as="sourcePoint" />
            <mxPoint x="-940" y="-560" as="targetPoint" />
          </mxGeometry>
        </mxCell>
      </root>
    </mxGraphModel>
  </diagram>
</mxfile>
